<svg xmlns="http://www.w3.org/2000/svg" viewBox="0 0 32 32" id="Deal"><path fill="#34a853" d="M11.729 25.952c-.64 0-1.28-.244-1.768-.731l-4.949-4.95c-.473-.472-.732-1.1-.732-1.768s.26-1.296.732-1.768l9.061-9.062a2.506 2.506 0 0 1 1.602-.727l3.648-.243a2.524 2.524 0 0 1 1.934.727l1.545 1.545c.51.51.775 1.215.728 1.934l-.244 3.648a2.504 2.504 0 0 1-.727 1.602l-9.061 9.061a2.495 2.495 0 0 1-1.769.732zm-1.061-1.438a1.502 1.502 0 0 0 2.122 0l9.061-9.061c.257-.257.411-.598.436-.961l.244-3.648a1.505 1.505 0 0 0-.437-1.161l-1.545-1.545a1.48 1.48 0 0 0-1.16-.436l-3.649.244a1.5 1.5 0 0 0-.961.436l-9.061 9.061c-.283.283-.439.66-.439 1.061s.156.777.439 1.061l4.95 4.949z" class="color2c4355 svgShape"></path><path fill="#34a853" d="M19.2 12.487a1.497 1.497 0 0 1-1.5-1.499 1.501 1.501 0 1 1 2.56 1.061 1.494 1.494 0 0 1-1.06.438zm0-1.999a.498.498 0 0 0-.354.853.5.5 0 0 0 .707 0 .501.501 0 0 0-.353-.853z" class="color2c4355 svgShape"></path><path fill="#34a853" d="M22.815 14.584a.5.5 0 0 1-.118-.986c.858-.208 1.734-.726 2.467-1.459 1.533-1.533 2.019-3.638 1.061-4.596s-3.063-.472-4.597 1.061a5.742 5.742 0 0 0-1.262 1.861.5.5 0 1 1-.925-.377 6.75 6.75 0 0 1 1.48-2.191c1.981-1.982 4.62-2.45 6.011-1.061 1.388 1.388.922 4.027-1.061 6.01-.86.861-1.904 1.473-2.938 1.724a.476.476 0 0 1-.118.014z" class="color2c4355 svgShape"></path><path fill="#ea4335" d="M9.254 18.65a.5.5 0 0 1-.354-.853l4.95-4.95a.5.5 0 0 1 .707.707l-4.95 4.95a.498.498 0 0 1-.353.146zm2.828 2.828a.5.5 0 0 1-.354-.853l4.95-4.95a.5.5 0 0 1 .707.707l-4.95 4.95a.498.498 0 0 1-.353.146z" class="colorf15743 svgShape"></path></svg>