<svg width="385" height="385" viewBox="0 0 385 385" fill="none" xmlns="http://www.w3.org/2000/svg">
<path d="M34.5762 289.142H357.43C357.43 289.142 349.641 273.564 339.515 268.501C329.39 263.439 323.938 273.564 311.475 266.554C299.013 259.544 301.739 243.187 287.719 233.451C273.699 223.714 258.9 234.619 246.048 233.84C233.196 233.061 229.302 215.926 215.282 213.978C201.262 212.031 201.652 228.247 188.799 233.061C175.947 237.876 167.086 230.039 158.033 230.335C148.98 230.63 150.634 236.177 142.066 240.071C133.498 243.966 131.94 242.019 115.583 243.576C99.2262 245.134 95.3315 261.881 89.4903 266.554C83.6483 271.227 75.8597 263.828 63.7869 266.554C51.7118 269.28 34.5762 289.142 34.5762 289.142Z" fill="#0ACF83"/>
<g opacity="0.8">
<path d="M34.5762 289.142H357.43C357.43 289.142 349.641 273.564 339.515 268.501C329.39 263.439 323.938 273.564 311.475 266.554C299.013 259.544 301.739 243.187 287.719 233.451C273.699 223.714 258.9 234.619 246.048 233.84C233.196 233.061 229.302 215.926 215.282 213.978C201.262 212.031 201.652 228.247 188.799 233.061C175.947 237.876 167.086 230.039 158.033 230.335C148.98 230.63 150.634 236.177 142.066 240.071C133.498 243.966 131.94 242.019 115.583 243.576C99.2262 245.134 95.3315 261.881 89.4903 266.554C83.6483 271.227 75.8597 263.828 63.7869 266.554C51.7118 269.28 34.5762 289.142 34.5762 289.142Z" fill="#CCF8E6"/>
</g>
<path d="M305.083 229.901C305.687 233.124 312.998 243.638 315.689 249.548C315.065 248.738 314.347 247.872 313.627 247.036C313.063 246.057 312.568 244.965 312.003 244.118C311.134 242.818 310.215 241.551 309.228 240.338C307.685 238.444 305.977 236.66 304.031 235.175C301.722 233.413 299.15 232.161 296.242 231.934C295.51 231.877 291.071 231.544 292.099 233.319C292.264 233.603 292.551 233.79 292.83 233.962C295.534 235.622 298.519 236.507 301.371 237.843C305.638 239.842 311.272 245.15 313.621 247.467C313.945 247.892 314.347 248.425 314.811 249.04C310.617 245.129 303.762 242.903 301.417 243.979C298.515 245.311 304.755 246.663 310.054 248.034C313.481 248.921 315.485 250.356 316.473 251.259C317.494 252.628 318.637 254.174 319.785 255.751C319.923 255.993 320.063 256.229 320.204 256.46C319.373 255.526 318.421 254.59 317.46 253.932C314.749 252.077 307.292 250.952 306.501 253.463C305.711 255.974 311.01 254.825 315.557 255.549C318.672 256.044 320.929 257.883 322.042 258.993C322.143 259.105 322.244 259.212 322.345 259.316C322.86 260.045 323.354 260.754 323.818 261.431C324.903 263.016 325.929 264.504 326.935 265.947C325.641 264.308 323.728 262.172 321.562 260.689C317.587 257.967 312.278 257.386 310.346 258.85C308.415 260.315 317.329 261.639 321.714 263.182C325.025 264.346 327.299 266.691 328.214 267.771C329.65 269.806 331.078 271.791 332.612 273.873C330.611 271.993 327.722 269.932 324.792 268.012C320.303 265.072 315.651 265.47 314.414 267.277C313.176 269.084 316.972 269.161 324.031 270.676C329.091 271.762 332.493 274.372 334.014 275.763C334.665 276.635 335.335 277.527 336.039 278.455C336.839 279.51 337.765 280.588 338.749 281.651C337.551 281.116 335.792 280.338 333.835 279.503C331.647 278.571 329.529 277.568 327.511 276.315C325.181 274.869 322.06 273.336 319.295 274.565C318.358 274.982 317.969 275.768 318.388 276.705C318.647 277.282 319.196 277.668 319.747 277.972C322.802 279.66 326.623 280.101 329.991 280.854C334.146 281.782 337.704 282.164 339.363 282.305C340.282 283.269 341.237 284.213 342.181 285.108C341.958 285.15 341.544 285.227 340.764 285.374C339.09 285.687 330.946 283.431 326.913 282.926C322.88 282.421 319.596 285.083 323.982 286.626C328.367 288.168 339.298 285.964 339.298 285.964L342.458 285.372C346.208 288.901 349.678 291.604 349.678 291.604L351.139 290.625C351.139 290.625 348.119 289.79 343.037 284.989C342.97 284.621 342.889 283.8 342.989 282.121C343.312 276.734 347.755 270.651 344.34 265.435C343.515 264.175 341.742 263.48 340.752 264.869C340.042 265.866 340.088 267.552 340.311 268.695C341.055 272.504 342.268 275.884 341.983 279.855C341.97 280.035 341.99 282.697 342.162 284.143C341.474 283.463 340.754 282.713 340.001 281.887C339.384 280.388 338.872 278.825 338.506 277.252C337.531 273.057 338.518 268.606 337.804 264.332C337.585 263.023 335.541 259.922 334.544 262.614C334.099 263.814 334.664 266.077 334.745 267.343C334.973 270.94 335.331 274.698 336.744 278.055C336.542 277.802 336.34 277.548 336.138 277.294C335.791 276.366 334.257 272.107 333.301 267C332.218 261.216 332.4 256.297 330.536 254.755C328.672 253.214 328.775 259.654 330.514 266.419C331.481 270.176 333.131 273.172 334.407 275.094C332.417 272.546 330.437 269.941 328.554 267.421C327.704 266.051 325.622 262.319 325.36 258.245C325.028 253.108 324.715 248.913 322.347 246.362C319.978 243.812 319.864 245.724 321.737 251.518C323.023 255.496 324.564 260.837 326.339 264.435C324.871 262.442 323.493 260.546 322.256 258.826C321.431 257.05 319.425 252.455 318.805 248.478C318.016 243.426 317.047 240.772 315.724 242.123C314.808 243.058 316.453 249.189 318.949 254.176C317.914 252.704 317.131 251.571 316.678 250.901C316.473 250.597 316.24 250.272 315.987 249.937C315.398 247.909 313.914 243.135 311.638 237.969C308.622 231.129 304.428 226.399 305.083 229.901Z" fill="#0ACF83"/>
<g opacity="0.6">
<path d="M305.083 229.901C305.687 233.124 312.998 243.638 315.689 249.548C315.065 248.738 314.347 247.872 313.627 247.036C313.063 246.057 312.568 244.965 312.003 244.118C311.134 242.818 310.215 241.551 309.228 240.338C307.685 238.444 305.977 236.66 304.031 235.175C301.722 233.413 299.15 232.161 296.242 231.934C295.51 231.877 291.071 231.544 292.099 233.319C292.264 233.603 292.551 233.79 292.83 233.962C295.534 235.622 298.519 236.507 301.371 237.843C305.638 239.842 311.272 245.15 313.621 247.467C313.945 247.892 314.347 248.425 314.811 249.04C310.617 245.129 303.762 242.903 301.417 243.979C298.515 245.311 304.755 246.663 310.054 248.034C313.481 248.921 315.485 250.356 316.473 251.259C317.494 252.628 318.637 254.174 319.785 255.751C319.923 255.993 320.063 256.229 320.204 256.46C319.373 255.526 318.421 254.59 317.46 253.932C314.749 252.077 307.292 250.952 306.501 253.463C305.711 255.974 311.01 254.825 315.557 255.549C318.672 256.044 320.929 257.883 322.042 258.993C322.143 259.105 322.244 259.212 322.345 259.316C322.86 260.045 323.354 260.754 323.818 261.431C324.903 263.016 325.929 264.504 326.935 265.947C325.641 264.308 323.728 262.172 321.562 260.689C317.587 257.967 312.278 257.386 310.346 258.85C308.415 260.315 317.329 261.639 321.714 263.182C325.025 264.346 327.299 266.691 328.214 267.771C329.65 269.806 331.078 271.791 332.612 273.873C330.611 271.993 327.722 269.932 324.792 268.012C320.303 265.072 315.651 265.47 314.414 267.277C313.176 269.084 316.972 269.161 324.031 270.676C329.091 271.762 332.493 274.372 334.014 275.763C334.665 276.635 335.335 277.527 336.039 278.455C336.839 279.51 337.765 280.588 338.749 281.651C337.551 281.116 335.792 280.338 333.835 279.503C331.647 278.571 329.529 277.568 327.511 276.315C325.181 274.869 322.06 273.336 319.295 274.565C318.358 274.982 317.969 275.768 318.388 276.705C318.647 277.282 319.196 277.668 319.747 277.972C322.802 279.66 326.623 280.101 329.991 280.854C334.146 281.782 337.704 282.164 339.363 282.305C340.282 283.269 341.237 284.213 342.181 285.108C341.958 285.15 341.544 285.227 340.764 285.374C339.09 285.687 330.946 283.431 326.913 282.926C322.88 282.421 319.596 285.083 323.982 286.626C328.367 288.168 339.298 285.964 339.298 285.964L342.458 285.372C346.208 288.901 349.678 291.604 349.678 291.604L351.139 290.625C351.139 290.625 348.119 289.79 343.037 284.989C342.97 284.621 342.889 283.8 342.989 282.121C343.312 276.734 347.755 270.651 344.34 265.435C343.515 264.175 341.742 263.48 340.752 264.869C340.042 265.866 340.088 267.552 340.311 268.695C341.055 272.504 342.268 275.884 341.983 279.855C341.97 280.035 341.99 282.697 342.162 284.143C341.474 283.463 340.754 282.713 340.001 281.887C339.384 280.388 338.872 278.825 338.506 277.252C337.531 273.057 338.518 268.606 337.804 264.332C337.585 263.023 335.541 259.922 334.544 262.614C334.099 263.814 334.664 266.077 334.745 267.343C334.973 270.94 335.331 274.698 336.744 278.055C336.542 277.802 336.34 277.548 336.138 277.294C335.791 276.366 334.257 272.107 333.301 267C332.218 261.216 332.4 256.297 330.536 254.755C328.672 253.214 328.775 259.654 330.514 266.419C331.481 270.176 333.131 273.172 334.407 275.094C332.417 272.546 330.437 269.941 328.554 267.421C327.704 266.051 325.622 262.319 325.36 258.245C325.028 253.108 324.715 248.913 322.347 246.362C319.978 243.812 319.864 245.724 321.737 251.518C323.023 255.496 324.564 260.837 326.339 264.435C324.871 262.442 323.493 260.546 322.256 258.826C321.431 257.05 319.425 252.455 318.805 248.478C318.016 243.426 317.047 240.772 315.724 242.123C314.808 243.058 316.453 249.189 318.949 254.176C317.914 252.704 317.131 251.571 316.678 250.901C316.473 250.597 316.24 250.272 315.987 249.937C315.398 247.909 313.914 243.135 311.638 237.969C308.622 231.129 304.428 226.399 305.083 229.901Z" fill="#CCF8E6"/>
</g>
<path d="M359.659 214.888C357.873 217.638 355.917 230.294 353.792 236.43C353.899 235.413 353.976 234.291 354.031 233.189C354.297 232.09 354.692 230.959 354.866 229.955C355.134 228.415 355.342 226.863 355.463 225.304C355.653 222.869 355.645 220.399 355.26 217.982C354.802 215.114 353.803 212.432 351.853 210.263C351.363 209.717 348.378 206.416 347.899 208.409C347.822 208.729 347.901 209.062 347.985 209.379C348.798 212.446 350.35 215.145 351.493 218.079C353.205 222.468 353.626 230.198 353.729 233.496C353.67 234.027 353.594 234.691 353.505 235.456C353.165 229.732 349.736 223.393 347.295 222.555C344.275 221.518 347.862 226.801 350.754 231.447C352.624 234.453 353.086 236.873 353.179 238.208C352.975 239.904 352.737 241.812 352.48 243.745C352.413 244.015 352.352 244.283 352.295 244.547C352.338 243.298 352.293 241.963 352.051 240.825C351.367 237.611 346.741 231.654 344.437 232.928C342.133 234.202 346.764 237.023 349.557 240.684C351.471 243.191 351.837 246.078 351.878 247.65C351.873 247.801 351.873 247.949 351.875 248.093C351.745 248.976 351.614 249.831 351.482 250.64C351.175 252.535 350.892 254.321 350.626 256.061C350.819 253.981 350.907 251.115 350.36 248.547C349.358 243.834 345.914 239.753 343.506 239.481C341.097 239.21 346.639 246.315 348.752 250.456C350.346 253.583 350.377 256.849 350.295 258.263C349.931 260.726 349.597 263.149 349.272 265.714C349.119 262.973 348.448 259.489 347.649 256.077C346.426 250.852 342.782 247.932 340.64 248.388C338.498 248.844 341.194 251.518 345.261 257.481C348.177 261.757 348.841 265.993 348.984 268.049C348.853 269.129 348.724 270.238 348.594 271.395C348.445 272.71 348.374 274.13 348.353 275.578C347.855 274.364 347.117 272.589 346.275 270.634C345.333 268.451 344.491 266.265 343.894 263.965C343.204 261.311 342.001 258.049 339.151 257.031C338.186 256.687 337.361 256.988 337.019 257.956C336.808 258.552 336.939 259.21 337.129 259.81C338.177 263.139 340.641 266.095 342.56 268.962C344.929 272.499 347.243 275.23 348.347 276.476C348.348 277.808 348.388 279.15 348.454 280.449C348.264 280.326 347.91 280.096 347.245 279.664C345.816 278.736 341.475 271.487 338.902 268.34C336.329 265.193 332.115 264.857 334.228 268.998C336.34 273.139 345.777 279.08 345.777 279.08L348.474 280.831C348.756 285.972 349.406 290.322 349.406 290.322L351.139 290.622C351.139 290.622 349.527 287.934 349.157 280.953C349.362 280.64 349.87 279.99 351.1 278.843C355.049 275.165 362.462 273.823 363.585 267.691C363.857 266.208 363.052 264.482 361.377 264.806C360.176 265.039 359.045 266.291 358.418 267.272C356.331 270.543 354.879 273.829 351.933 276.507C351.8 276.629 349.979 278.571 349.107 279.736C349.078 278.77 349.073 277.73 349.098 276.613C349.684 275.101 350.391 273.616 351.211 272.225C353.398 268.514 357.181 265.972 359.612 262.384C360.356 261.285 361.013 257.63 358.435 258.891C357.287 259.453 356.135 261.481 355.32 262.455C353.005 265.217 350.672 268.186 349.381 271.591C349.409 271.269 349.438 270.945 349.466 270.622C349.855 269.711 351.682 265.568 354.511 261.21C357.715 256.275 361.238 252.838 360.951 250.436C360.664 248.033 356.297 252.769 352.892 258.867C351.001 262.255 350.13 265.562 349.728 267.835C350.045 264.618 350.407 261.365 350.781 258.242C351.11 256.663 352.176 252.526 354.795 249.394C358.097 245.445 360.763 242.191 360.807 238.711C360.85 235.231 359.449 236.536 356.81 242.024C354.998 245.792 352.432 250.722 351.236 254.552C351.547 252.097 351.856 249.773 352.147 247.674C352.774 245.819 354.489 241.109 356.782 237.8C359.695 233.598 360.823 231.007 358.934 231.072C357.625 231.118 354.588 236.693 352.957 242.026C353.222 240.245 353.437 238.886 353.571 238.088C353.632 237.726 353.687 237.331 353.736 236.914C354.707 235.038 356.925 230.558 358.838 225.247C361.374 218.217 361.598 211.9 359.659 214.888Z" fill="#0ACF83"/>
<g opacity="0.6">
<path d="M359.659 214.888C357.873 217.638 355.917 230.294 353.792 236.43C353.899 235.413 353.976 234.291 354.031 233.189C354.297 232.09 354.692 230.959 354.866 229.955C355.134 228.415 355.342 226.863 355.463 225.304C355.653 222.869 355.645 220.399 355.26 217.982C354.802 215.114 353.803 212.432 351.853 210.263C351.363 209.717 348.378 206.416 347.899 208.409C347.822 208.729 347.901 209.062 347.985 209.379C348.798 212.446 350.35 215.145 351.493 218.079C353.205 222.468 353.626 230.198 353.729 233.496C353.67 234.027 353.594 234.691 353.505 235.456C353.165 229.732 349.736 223.393 347.295 222.555C344.275 221.518 347.862 226.801 350.754 231.447C352.624 234.453 353.086 236.873 353.179 238.208C352.975 239.904 352.737 241.812 352.48 243.745C352.413 244.015 352.352 244.283 352.295 244.547C352.338 243.298 352.293 241.963 352.051 240.825C351.367 237.611 346.741 231.654 344.437 232.928C342.133 234.202 346.764 237.023 349.557 240.684C351.471 243.191 351.837 246.078 351.878 247.65C351.873 247.801 351.873 247.949 351.875 248.093C351.745 248.976 351.614 249.831 351.482 250.64C351.175 252.535 350.892 254.321 350.626 256.061C350.819 253.981 350.907 251.115 350.36 248.547C349.358 243.834 345.914 239.753 343.506 239.481C341.097 239.21 346.639 246.315 348.752 250.456C350.346 253.583 350.377 256.849 350.295 258.263C349.931 260.726 349.597 263.149 349.272 265.714C349.119 262.973 348.448 259.489 347.649 256.077C346.426 250.852 342.782 247.932 340.64 248.388C338.498 248.844 341.194 251.518 345.261 257.481C348.177 261.757 348.841 265.993 348.984 268.049C348.853 269.129 348.724 270.238 348.594 271.395C348.445 272.71 348.374 274.13 348.353 275.578C347.855 274.364 347.117 272.589 346.275 270.634C345.333 268.451 344.491 266.265 343.894 263.965C343.204 261.311 342.001 258.049 339.151 257.031C338.186 256.687 337.361 256.988 337.019 257.956C336.808 258.552 336.939 259.21 337.129 259.81C338.177 263.139 340.641 266.095 342.56 268.962C344.929 272.499 347.243 275.23 348.347 276.476C348.348 277.808 348.388 279.15 348.454 280.449C348.264 280.326 347.91 280.096 347.245 279.664C345.816 278.736 341.475 271.487 338.902 268.34C336.329 265.193 332.115 264.857 334.228 268.998C336.34 273.139 345.777 279.08 345.777 279.08L348.474 280.831C348.756 285.972 349.406 290.322 349.406 290.322L351.139 290.622C351.139 290.622 349.527 287.934 349.157 280.953C349.362 280.64 349.87 279.99 351.1 278.843C355.049 275.165 362.462 273.823 363.585 267.691C363.857 266.208 363.052 264.482 361.377 264.806C360.176 265.039 359.045 266.291 358.418 267.272C356.331 270.543 354.879 273.829 351.933 276.507C351.8 276.629 349.979 278.571 349.107 279.736C349.078 278.77 349.073 277.73 349.098 276.613C349.684 275.101 350.391 273.616 351.211 272.225C353.398 268.514 357.181 265.972 359.612 262.384C360.356 261.285 361.013 257.63 358.435 258.891C357.287 259.453 356.135 261.481 355.32 262.455C353.005 265.217 350.672 268.186 349.381 271.591C349.409 271.269 349.438 270.945 349.466 270.622C349.855 269.711 351.682 265.568 354.511 261.21C357.715 256.275 361.238 252.838 360.951 250.436C360.664 248.033 356.297 252.769 352.892 258.867C351.001 262.255 350.13 265.562 349.728 267.835C350.045 264.618 350.407 261.365 350.781 258.242C351.11 256.663 352.176 252.526 354.795 249.394C358.097 245.445 360.763 242.191 360.807 238.711C360.85 235.231 359.449 236.536 356.81 242.024C354.998 245.792 352.432 250.722 351.236 254.552C351.547 252.097 351.856 249.773 352.147 247.674C352.774 245.819 354.489 241.109 356.782 237.8C359.695 233.598 360.823 231.007 358.934 231.072C357.625 231.118 354.588 236.693 352.957 242.026C353.222 240.245 353.437 238.886 353.571 238.088C353.632 237.726 353.687 237.331 353.736 236.914C354.707 235.038 356.925 230.558 358.838 225.247C361.374 218.217 361.598 211.9 359.659 214.888Z" fill="#CCF8E6"/>
</g>
<path d="M31.248 242.511C31.6053 244.933 36.7566 252.988 38.5946 257.475C38.1518 256.853 37.6413 256.187 37.1285 255.541C36.7358 254.795 36.3978 253.965 36.0004 253.318C35.3898 252.323 34.7407 251.351 34.0385 250.418C32.942 248.96 31.7192 247.58 30.3101 246.416C28.6385 245.035 26.7551 244.026 24.5921 243.774C24.0477 243.71 20.746 243.333 21.4613 244.687C21.576 244.904 21.7847 245.052 21.9888 245.188C23.9584 246.505 26.1591 247.251 28.2489 248.33C31.3751 249.944 35.426 254.067 37.1116 255.864C37.3402 256.191 37.6259 256.6 37.9539 257.073C34.9386 254.034 29.8882 252.175 28.1072 252.91C25.9034 253.82 30.5204 255.009 34.4343 256.184C36.966 256.945 38.419 258.073 39.1305 258.775C39.8528 259.827 40.6613 261.013 41.4728 262.222C41.5691 262.407 41.6661 262.587 41.7647 262.763C41.1718 262.043 40.488 261.316 39.7904 260.798C37.8215 259.335 32.289 258.282 31.6276 260.132C30.9654 261.983 34.9525 261.278 38.3243 261.949C40.6335 262.409 42.2644 263.846 43.0629 264.706C43.1353 264.793 43.2076 264.875 43.28 264.955C43.6427 265.514 43.9915 266.058 44.3172 266.576C45.0811 267.789 45.8033 268.929 46.5133 270.035C45.5946 268.775 44.2294 267.125 42.6556 265.957C39.7681 263.812 35.8241 263.225 34.3403 264.262C32.8573 265.299 39.4693 266.544 42.6964 267.821C45.1326 268.785 46.762 270.6 47.4142 271.432C48.4259 272.992 49.4346 274.514 50.5188 276.111C49.0804 274.651 46.9845 273.03 44.8539 271.514C41.5891 269.19 38.1072 269.353 37.1316 270.666C36.1568 271.979 38.9865 272.146 44.2086 273.479C47.9524 274.434 50.4156 276.48 51.5098 277.562C51.9702 278.231 52.4446 278.916 52.9428 279.629C53.5095 280.439 54.1694 281.269 54.8724 282.091C53.9946 281.657 52.7048 281.026 51.268 280.347C49.6626 279.589 48.1118 278.779 46.6418 277.786C44.9448 276.639 42.6609 275.405 40.5619 276.243C39.8512 276.526 39.5378 277.102 39.8243 277.814C40.0006 278.252 40.3987 278.555 40.8014 278.798C43.0321 280.145 45.8711 280.585 48.3613 281.243C51.4343 282.056 54.0785 282.444 55.312 282.597C55.9696 283.342 56.6549 284.074 57.3333 284.77C57.1662 284.795 56.8551 284.841 56.2684 284.927C55.0102 285.113 48.9996 283.194 46.0051 282.701C43.0105 282.207 40.4842 284.1 43.7112 285.377C46.9383 286.654 55.158 285.324 55.158 285.324L57.5327 284.974C60.2285 287.715 62.7402 289.832 62.7402 289.832L63.859 289.143C63.859 289.143 61.6291 288.434 57.9762 284.705C57.937 284.429 57.9 283.814 58.024 282.564C58.4205 278.554 61.9109 274.143 59.5132 270.154C58.9334 269.19 57.6305 268.62 56.852 269.628C56.2938 270.351 56.2784 271.61 56.4124 272.469C56.8574 275.332 57.6659 277.889 57.3379 280.843C57.3233 280.977 57.2617 282.964 57.3487 284.048C56.8551 283.52 56.3392 282.94 55.8018 282.302C55.3844 281.166 55.0479 279.985 54.82 278.801C54.2133 275.642 55.078 272.351 54.6683 269.141C54.5428 268.159 53.1068 265.786 52.2852 267.765C51.9194 268.648 52.2752 270.352 52.299 271.3C52.366 273.989 52.5239 276.804 53.4818 279.349C53.3385 279.155 53.1953 278.959 53.0513 278.764C52.8196 278.062 51.7978 274.839 51.2318 271.002C50.5904 266.655 50.8684 262.99 49.5216 261.786C48.1749 260.582 48.0663 265.391 49.169 270.487C49.7811 273.318 50.9261 275.602 51.8232 277.072C50.4125 275.114 49.0096 273.113 47.6783 271.179C47.0831 270.131 45.6385 267.288 45.56 264.241C45.4607 260.399 45.3482 257.259 43.655 255.288C41.9618 253.317 41.8209 254.741 43.0513 259.117C43.896 262.122 44.8916 266.151 46.1129 268.887C45.0749 267.358 44.1016 265.903 43.2277 264.584C42.6633 263.236 41.2996 259.75 40.9508 256.765C40.508 252.974 39.8612 250.965 38.8356 251.934C38.1249 252.606 39.1759 257.227 40.8938 261.02C40.1638 259.892 39.6125 259.024 39.2945 258.511C39.1497 258.277 38.9857 258.029 38.8071 257.771C38.4252 256.241 37.4557 252.637 35.9065 248.717C33.8529 243.529 30.8599 239.88 31.248 242.511Z" fill="#0ACF83"/>
<path opacity="0.6" d="M31.248 242.511C31.6053 244.933 36.7566 252.988 38.5946 257.475C38.1518 256.853 37.6413 256.187 37.1285 255.541C36.7358 254.795 36.3978 253.965 36.0004 253.318C35.3898 252.323 34.7407 251.351 34.0385 250.418C32.942 248.96 31.7192 247.58 30.3101 246.416C28.6385 245.035 26.7551 244.026 24.5921 243.774C24.0477 243.71 20.746 243.333 21.4613 244.687C21.576 244.904 21.7847 245.052 21.9888 245.188C23.9584 246.505 26.1591 247.251 28.2489 248.33C31.3751 249.944 35.426 254.067 37.1116 255.864C37.3402 256.191 37.6259 256.6 37.9539 257.073C34.9386 254.034 29.8882 252.175 28.1072 252.91C25.9034 253.82 30.5204 255.009 34.4343 256.184C36.966 256.945 38.419 258.073 39.1305 258.775C39.8528 259.827 40.6613 261.013 41.4728 262.222C41.5691 262.407 41.6661 262.587 41.7647 262.763C41.1718 262.043 40.488 261.316 39.7904 260.798C37.8215 259.335 32.289 258.282 31.6276 260.132C30.9654 261.983 34.9525 261.278 38.3243 261.949C40.6335 262.409 42.2644 263.846 43.0629 264.706C43.1353 264.793 43.2076 264.875 43.28 264.955C43.6427 265.514 43.9915 266.058 44.3172 266.576C45.0811 267.789 45.8033 268.929 46.5133 270.035C45.5946 268.775 44.2294 267.125 42.6556 265.957C39.7681 263.812 35.8241 263.225 34.3403 264.262C32.8573 265.299 39.4693 266.544 42.6964 267.821C45.1326 268.785 46.762 270.6 47.4142 271.432C48.4259 272.992 49.4346 274.514 50.5188 276.111C49.0804 274.651 46.9845 273.03 44.8539 271.514C41.5891 269.19 38.1072 269.353 37.1316 270.666C36.1568 271.979 38.9865 272.146 44.2086 273.479C47.9524 274.434 50.4156 276.48 51.5098 277.562C51.9702 278.231 52.4446 278.916 52.9428 279.629C53.5095 280.439 54.1694 281.269 54.8724 282.091C53.9946 281.657 52.7048 281.026 51.268 280.347C49.6626 279.589 48.1118 278.779 46.6418 277.786C44.9448 276.639 42.6609 275.405 40.5619 276.243C39.8512 276.526 39.5378 277.102 39.8243 277.814C40.0006 278.252 40.3987 278.555 40.8014 278.798C43.0321 280.145 45.8711 280.585 48.3613 281.243C51.4343 282.056 54.0785 282.444 55.312 282.597C55.9696 283.342 56.6549 284.074 57.3333 284.77C57.1662 284.795 56.8551 284.841 56.2684 284.927C55.0102 285.113 48.9996 283.194 46.0051 282.701C43.0105 282.207 40.4842 284.1 43.7112 285.377C46.9383 286.654 55.158 285.324 55.158 285.324L57.5327 284.974C60.2285 287.715 62.7402 289.832 62.7402 289.832L63.859 289.143C63.859 289.143 61.6291 288.434 57.9762 284.705C57.937 284.429 57.9 283.814 58.024 282.564C58.4205 278.554 61.9109 274.143 59.5132 270.154C58.9334 269.19 57.6305 268.62 56.852 269.628C56.2938 270.351 56.2784 271.61 56.4124 272.469C56.8574 275.332 57.6659 277.889 57.3379 280.843C57.3233 280.977 57.2617 282.964 57.3487 284.048C56.8551 283.52 56.3392 282.94 55.8018 282.302C55.3844 281.166 55.0479 279.985 54.82 278.801C54.2133 275.642 55.078 272.351 54.6683 269.141C54.5428 268.159 53.1068 265.786 52.2852 267.765C51.9194 268.648 52.2752 270.352 52.299 271.3C52.366 273.989 52.5239 276.804 53.4818 279.349C53.3385 279.155 53.1953 278.959 53.0513 278.764C52.8196 278.062 51.7978 274.839 51.2318 271.002C50.5904 266.655 50.8684 262.99 49.5216 261.786C48.1749 260.582 48.0663 265.391 49.169 270.487C49.7811 273.318 50.9261 275.602 51.8232 277.072C50.4125 275.114 49.0096 273.113 47.6783 271.179C47.0831 270.131 45.6385 267.288 45.56 264.241C45.4607 260.399 45.3482 257.259 43.655 255.288C41.9618 253.317 41.8209 254.741 43.0513 259.117C43.896 262.122 44.8916 266.151 46.1129 268.887C45.0749 267.358 44.1016 265.903 43.2277 264.584C42.6633 263.236 41.2996 259.75 40.9508 256.765C40.508 252.974 39.8612 250.965 38.8356 251.934C38.1249 252.606 39.1759 257.227 40.8938 261.02C40.1638 259.892 39.6125 259.024 39.2945 258.511C39.1497 258.277 38.9857 258.029 38.8071 257.771C38.4252 256.241 37.4557 252.637 35.9065 248.717C33.8529 243.529 30.8599 239.88 31.248 242.511Z" fill="#CCF8E6"/>
<path d="M87.0214 240.637C84.9624 241.962 79.7503 249.978 76.4216 253.504C76.8058 252.844 77.2024 252.104 77.5781 251.37C78.0963 250.704 78.7123 250.054 79.1381 249.425C79.7926 248.459 80.4102 247.466 80.9707 246.442C81.8462 244.842 82.5985 243.159 83.0775 241.395C83.6457 239.303 83.7874 237.171 83.1252 235.096C82.9589 234.574 81.9394 231.411 81.0015 232.622C80.8514 232.816 80.8029 233.067 80.7628 233.309C80.3763 235.646 80.6042 237.959 80.4841 240.308C80.3032 243.821 78.2203 249.212 77.2786 251.489C77.0745 251.832 76.8197 252.261 76.5248 252.755C78.0486 248.754 77.6574 243.386 76.2529 242.067C74.5151 240.435 75.3374 245.131 75.881 249.181C76.2329 251.801 75.8048 253.59 75.4591 254.528C74.8 255.62 74.0531 256.846 73.2861 258.084C73.1576 258.247 73.0336 258.41 72.9135 258.574C73.3254 257.736 73.7043 256.814 73.889 255.965C74.4088 253.568 73.0859 248.094 71.1271 248.255C69.1682 248.416 71.4551 251.756 72.2351 255.105C72.7695 257.398 72.1334 259.477 71.6791 260.559C71.6299 260.66 71.5844 260.76 71.5413 260.86C71.1825 261.42 70.8306 261.962 70.4934 262.473C69.7026 263.669 68.9626 264.798 68.248 265.9C69.0173 264.543 69.9559 262.619 70.3709 260.703C71.1332 257.188 70.0406 253.353 68.4844 252.43C66.9275 251.507 68.5222 258.043 68.69 261.51C68.8171 264.127 67.8361 266.36 67.3471 267.297C66.3438 268.862 65.3736 270.409 64.3657 272.056C65.1026 270.144 65.714 267.566 66.216 264.998C66.9852 261.066 65.3998 257.961 63.8021 257.615C62.2035 257.268 63.2192 259.915 64.1601 265.223C64.8346 269.027 63.9868 272.115 63.4532 273.558C63.0336 274.253 62.6055 274.968 62.162 275.716C61.6576 276.566 61.1733 277.51 60.7151 278.49C60.7482 277.511 60.7906 276.076 60.816 274.486C60.8445 272.711 60.9423 270.964 61.2403 269.216C61.5844 267.197 61.7662 264.607 60.1368 263.041C59.5855 262.511 58.9318 262.463 58.402 263.017C58.0763 263.358 57.9639 263.847 57.9085 264.313C57.602 266.901 58.372 269.669 58.8001 272.209C59.3283 275.343 60.066 277.911 60.4356 279.099C60.0275 280.005 59.644 280.931 59.2906 281.836C59.199 281.694 59.0288 281.43 58.7085 280.931C58.0201 279.862 57.2878 273.596 56.5009 270.664C55.7147 267.733 52.9481 266.213 53.1168 269.679C53.2854 273.146 57.8877 280.084 57.8877 280.084L59.1867 282.103C57.8022 285.689 56.9106 288.85 56.9106 288.85L57.9986 289.585C57.9986 289.585 57.7252 287.261 59.614 282.396C59.8496 282.246 60.3948 281.959 61.5837 281.556C65.3998 280.262 70.8583 281.622 73.5033 277.791C74.1424 276.866 74.1239 275.444 72.8842 275.151C71.9949 274.941 70.8422 275.447 70.1145 275.923C67.6905 277.51 65.6947 279.301 62.868 280.221C62.7402 280.263 60.9045 281.028 59.9536 281.553C60.2308 280.887 60.5457 280.177 60.9053 279.424C61.7685 278.574 62.7048 277.78 63.6896 277.084C66.3161 275.229 69.671 274.658 72.426 272.96C73.2692 272.441 74.8377 270.154 72.6956 270.222C71.7408 270.252 70.3347 271.28 69.4816 271.693C67.0592 272.864 64.5605 274.169 62.637 276.092C62.7549 275.881 62.8734 275.67 62.9928 275.458C63.5372 274.958 66.0504 272.697 69.3129 270.598C73.0082 268.22 76.4601 266.961 77.0014 265.238C77.5427 263.515 73.1175 265.4 68.9302 268.507C66.6041 270.234 64.9971 272.218 64.0269 273.642C65.2289 271.549 66.4724 269.445 67.6852 267.434C68.3936 266.46 70.3879 263.971 73.1306 262.642C76.5894 260.965 79.403 259.568 80.4995 257.212C81.596 254.857 80.2416 255.316 76.7619 258.243C74.3734 260.251 71.114 262.821 69.1258 265.062C70.0906 263.486 71.0139 261.999 71.8555 260.659C72.8511 259.588 75.4637 256.907 78.0386 255.359C81.3095 253.391 82.8726 251.973 81.566 251.439C80.6604 251.068 76.8843 253.933 74.1385 257.063C74.8654 255.933 75.4283 255.072 75.764 254.57C75.9165 254.342 76.0751 254.091 76.236 253.821C77.4726 252.842 80.3555 250.472 83.2869 247.443C87.1685 243.43 89.2575 239.198 87.0214 240.637Z" fill="#0ACF83"/>
<path opacity="0.6" d="M87.0214 240.637C84.9624 241.962 79.7503 249.978 76.4216 253.504C76.8058 252.844 77.2024 252.104 77.5781 251.37C78.0963 250.704 78.7123 250.054 79.1381 249.425C79.7926 248.459 80.4102 247.466 80.9707 246.442C81.8462 244.842 82.5985 243.159 83.0775 241.395C83.6457 239.303 83.7874 237.171 83.1252 235.096C82.9589 234.574 81.9394 231.411 81.0015 232.622C80.8514 232.816 80.8029 233.067 80.7628 233.309C80.3763 235.646 80.6042 237.959 80.4841 240.308C80.3032 243.821 78.2203 249.212 77.2786 251.489C77.0745 251.832 76.8197 252.261 76.5248 252.755C78.0486 248.754 77.6574 243.386 76.2529 242.067C74.5151 240.435 75.3374 245.131 75.881 249.181C76.2329 251.801 75.8048 253.59 75.4591 254.528C74.8 255.62 74.0531 256.846 73.2861 258.084C73.1576 258.247 73.0336 258.41 72.9135 258.574C73.3254 257.736 73.7043 256.814 73.889 255.965C74.4088 253.568 73.0859 248.094 71.1271 248.255C69.1682 248.416 71.4551 251.756 72.2351 255.105C72.7695 257.398 72.1334 259.477 71.6791 260.559C71.6299 260.66 71.5844 260.76 71.5413 260.86C71.1825 261.42 70.8306 261.962 70.4934 262.473C69.7026 263.669 68.9626 264.798 68.248 265.9C69.0173 264.543 69.9559 262.619 70.3709 260.703C71.1332 257.188 70.0406 253.353 68.4844 252.43C66.9275 251.507 68.5222 258.043 68.69 261.51C68.8171 264.127 67.8361 266.36 67.3471 267.297C66.3438 268.862 65.3736 270.409 64.3657 272.056C65.1026 270.144 65.714 267.566 66.216 264.998C66.9852 261.066 65.3998 257.961 63.8021 257.615C62.2035 257.268 63.2192 259.915 64.1601 265.223C64.8346 269.027 63.9868 272.115 63.4532 273.558C63.0336 274.253 62.6055 274.968 62.162 275.716C61.6576 276.566 61.1733 277.51 60.7151 278.49C60.7482 277.511 60.7906 276.076 60.816 274.486C60.8445 272.711 60.9423 270.964 61.2403 269.216C61.5844 267.197 61.7662 264.607 60.1368 263.041C59.5855 262.511 58.9318 262.463 58.402 263.017C58.0763 263.358 57.9639 263.847 57.9085 264.313C57.602 266.901 58.372 269.669 58.8001 272.209C59.3283 275.343 60.066 277.911 60.4356 279.099C60.0275 280.005 59.644 280.931 59.2906 281.836C59.199 281.694 59.0288 281.43 58.7085 280.931C58.0201 279.862 57.2878 273.596 56.5009 270.664C55.7147 267.733 52.9481 266.213 53.1168 269.679C53.2854 273.146 57.8877 280.084 57.8877 280.084L59.1867 282.103C57.8022 285.689 56.9106 288.85 56.9106 288.85L57.9986 289.585C57.9986 289.585 57.7252 287.261 59.614 282.396C59.8496 282.246 60.3948 281.959 61.5837 281.556C65.3998 280.262 70.8583 281.622 73.5033 277.791C74.1424 276.866 74.1239 275.444 72.8842 275.151C71.9949 274.941 70.8422 275.447 70.1145 275.923C67.6905 277.51 65.6947 279.301 62.868 280.221C62.7402 280.263 60.9045 281.028 59.9536 281.553C60.2308 280.887 60.5457 280.177 60.9053 279.424C61.7685 278.574 62.7048 277.78 63.6896 277.084C66.3161 275.229 69.671 274.658 72.426 272.96C73.2692 272.441 74.8377 270.154 72.6956 270.222C71.7408 270.252 70.3347 271.28 69.4816 271.693C67.0592 272.864 64.5605 274.169 62.637 276.092C62.7549 275.881 62.8734 275.67 62.9928 275.458C63.5372 274.958 66.0504 272.697 69.3129 270.598C73.0082 268.22 76.4601 266.961 77.0014 265.238C77.5427 263.515 73.1175 265.4 68.9302 268.507C66.6041 270.234 64.9971 272.218 64.0269 273.642C65.2289 271.549 66.4724 269.445 67.6852 267.434C68.3936 266.46 70.3879 263.971 73.1306 262.642C76.5894 260.965 79.403 259.568 80.4995 257.212C81.596 254.857 80.2416 255.316 76.7619 258.243C74.3734 260.251 71.114 262.821 69.1258 265.062C70.0906 263.486 71.0139 261.999 71.8555 260.659C72.8511 259.588 75.4637 256.907 78.0386 255.359C81.3095 253.391 82.8726 251.973 81.566 251.439C80.6604 251.068 76.8843 253.933 74.1385 257.063C74.8654 255.933 75.4283 255.072 75.764 254.57C75.9165 254.342 76.0751 254.091 76.236 253.821C77.4726 252.842 80.3555 250.472 83.2869 247.443C87.1685 243.43 89.2575 239.198 87.0214 240.637Z" fill="#CCF8E6"/>
<path d="M109.583 240.851C107.524 242.177 102.312 250.192 98.9828 253.718C99.3671 253.058 99.7636 252.318 100.139 251.584C100.658 250.918 101.274 250.268 101.699 249.639C102.354 248.673 102.971 247.681 103.532 246.656C104.407 245.056 105.16 243.372 105.639 241.608C106.207 239.516 106.349 237.384 105.686 235.31C105.52 234.788 104.5 231.624 103.563 232.835C103.413 233.029 103.364 233.28 103.324 233.523C102.938 235.859 103.165 238.173 103.045 240.521C102.864 244.035 100.781 249.425 99.8398 251.702C99.6358 252.046 99.3817 252.475 99.086 252.968C100.61 248.967 100.219 243.6 98.8142 242.28C97.0763 240.649 97.8987 245.344 98.4423 249.395C98.7942 252.015 98.3661 253.804 98.0203 254.741C97.3612 255.833 96.6143 257.059 95.8466 258.297C95.718 258.461 95.5941 258.624 95.4739 258.787C95.8859 257.949 96.2647 257.028 96.4495 256.178C96.9693 253.781 95.6464 248.307 93.6875 248.467C91.7287 248.628 94.0156 251.969 94.7956 255.317C95.3292 257.611 94.6939 259.689 94.2396 260.771C94.1904 260.873 94.1449 260.973 94.1018 261.072C93.743 261.633 93.3911 262.175 93.0538 262.685C92.263 263.882 91.5231 265.011 90.8085 266.113C91.5777 264.756 92.5164 262.832 92.9314 260.916C93.6937 257.4 92.6011 253.566 91.0449 252.642C89.488 251.719 91.0826 258.256 91.2505 261.723C91.3776 264.34 90.3966 266.573 89.9076 267.51C88.9043 269.076 87.9341 270.623 86.9262 272.27C87.6631 270.357 88.2744 267.779 88.7765 265.212C89.5457 261.279 87.9603 258.175 86.3625 257.828C84.7648 257.481 85.7804 260.128 86.7206 265.435C87.3951 269.24 86.5473 272.327 86.0137 273.771C85.5941 274.466 85.166 275.181 84.7224 275.93C84.2181 276.78 83.7338 277.724 83.2756 278.703C83.3087 277.724 83.3511 276.289 83.3765 274.701C83.405 272.925 83.5028 271.179 83.8007 269.43C84.1449 267.411 84.3267 264.821 82.6973 263.255C82.146 262.726 81.4923 262.677 80.9625 263.231C80.636 263.573 80.5244 264.061 80.469 264.527C80.1625 267.115 80.9325 269.883 81.3606 272.423C81.8888 275.557 82.6265 278.126 82.9961 279.313C82.588 280.219 82.2045 281.145 81.8511 282.05C81.7595 281.908 81.5893 281.644 81.269 281.145C80.5806 280.076 79.8483 273.81 79.0614 270.878C78.2752 267.947 75.5094 266.427 75.6772 269.893C75.8459 273.36 80.4482 280.298 80.4482 280.298L81.7472 282.317C80.3627 285.903 79.471 289.064 79.471 289.064L80.559 289.8C80.559 289.8 80.2857 287.476 82.1745 282.609C82.4101 282.459 82.9553 282.172 84.1442 281.769C87.9603 280.476 93.4188 281.835 96.0638 278.005C96.7029 277.079 96.6844 275.657 95.4447 275.364C94.5553 275.153 93.4026 275.659 92.675 276.136C90.251 277.723 88.2552 279.514 85.4285 280.434C85.3007 280.476 83.465 281.24 82.5141 281.766C82.7905 281.099 83.1062 280.389 83.4658 279.636C84.329 278.787 85.2653 277.993 86.2501 277.297C88.8766 275.441 92.2315 274.871 94.9865 273.173C95.8305 272.653 97.3982 270.366 95.256 270.434C94.3012 270.465 92.8952 271.492 92.0421 271.905C89.6196 273.076 87.121 274.381 85.1975 276.304C85.3153 276.094 85.4339 275.882 85.5533 275.67C86.0977 275.17 88.6109 272.909 91.8734 270.81C95.5687 268.432 99.0206 267.173 99.5619 265.45C100.103 263.727 95.678 265.611 91.4907 268.719C89.1646 270.446 87.5576 272.43 86.5874 273.854C87.7893 271.761 89.0329 269.658 90.2457 267.647C90.9541 266.673 92.9483 264.183 95.6911 262.854C99.1499 261.178 101.964 259.78 103.06 257.425C104.156 255.069 102.802 255.528 99.3224 258.455C96.9339 260.464 93.6745 263.034 91.6863 265.275C92.6511 263.699 93.5744 262.212 94.416 260.871C95.4116 259.8 98.0234 257.12 100.599 255.571C103.87 253.603 105.433 252.186 104.126 251.651C103.221 251.281 99.4448 254.145 96.699 257.275C97.4259 256.145 97.9888 255.285 98.3253 254.783C98.4777 254.555 98.6363 254.303 98.7973 254.034C100.034 253.054 102.917 250.684 105.848 247.656C109.73 243.645 111.82 239.412 109.583 240.851Z" fill="#0ACF83"/>
<path opacity="0.6" d="M109.583 240.851C107.524 242.177 102.312 250.192 98.9828 253.718C99.3671 253.058 99.7636 252.318 100.139 251.584C100.658 250.918 101.274 250.268 101.699 249.639C102.354 248.673 102.971 247.681 103.532 246.656C104.407 245.056 105.16 243.372 105.639 241.608C106.207 239.516 106.349 237.384 105.686 235.31C105.52 234.788 104.5 231.624 103.563 232.835C103.413 233.029 103.364 233.28 103.324 233.523C102.938 235.859 103.165 238.173 103.045 240.521C102.864 244.035 100.781 249.425 99.8398 251.702C99.6358 252.046 99.3817 252.475 99.086 252.968C100.61 248.967 100.219 243.6 98.8142 242.28C97.0763 240.649 97.8987 245.344 98.4423 249.395C98.7942 252.015 98.3661 253.804 98.0203 254.741C97.3612 255.833 96.6143 257.059 95.8466 258.297C95.718 258.461 95.5941 258.624 95.4739 258.787C95.8859 257.949 96.2647 257.028 96.4495 256.178C96.9693 253.781 95.6464 248.307 93.6875 248.467C91.7287 248.628 94.0156 251.969 94.7956 255.317C95.3292 257.611 94.6939 259.689 94.2396 260.771C94.1904 260.873 94.1449 260.973 94.1018 261.072C93.743 261.633 93.3911 262.175 93.0538 262.685C92.263 263.882 91.5231 265.011 90.8085 266.113C91.5777 264.756 92.5164 262.832 92.9314 260.916C93.6937 257.4 92.6011 253.566 91.0449 252.642C89.488 251.719 91.0826 258.256 91.2505 261.723C91.3776 264.34 90.3966 266.573 89.9076 267.51C88.9043 269.076 87.9341 270.623 86.9262 272.27C87.6631 270.357 88.2744 267.779 88.7765 265.212C89.5457 261.279 87.9603 258.175 86.3625 257.828C84.7648 257.481 85.7804 260.128 86.7206 265.435C87.3951 269.24 86.5473 272.327 86.0137 273.771C85.5941 274.466 85.166 275.181 84.7224 275.93C84.2181 276.78 83.7338 277.724 83.2756 278.703C83.3087 277.724 83.3511 276.289 83.3765 274.701C83.405 272.925 83.5028 271.179 83.8007 269.43C84.1449 267.411 84.3267 264.821 82.6973 263.255C82.146 262.726 81.4923 262.677 80.9625 263.231C80.636 263.573 80.5244 264.061 80.469 264.527C80.1625 267.115 80.9325 269.883 81.3606 272.423C81.8888 275.557 82.6265 278.126 82.9961 279.313C82.588 280.219 82.2045 281.145 81.8511 282.05C81.7595 281.908 81.5893 281.644 81.269 281.145C80.5806 280.076 79.8483 273.81 79.0614 270.878C78.2752 267.947 75.5094 266.427 75.6772 269.893C75.8459 273.36 80.4482 280.298 80.4482 280.298L81.7472 282.317C80.3627 285.903 79.471 289.064 79.471 289.064L80.559 289.8C80.559 289.8 80.2857 287.476 82.1745 282.609C82.4101 282.459 82.9553 282.172 84.1442 281.769C87.9603 280.476 93.4188 281.835 96.0638 278.005C96.7029 277.079 96.6844 275.657 95.4447 275.364C94.5553 275.153 93.4026 275.659 92.675 276.136C90.251 277.723 88.2552 279.514 85.4285 280.434C85.3007 280.476 83.465 281.24 82.5141 281.766C82.7905 281.099 83.1062 280.389 83.4658 279.636C84.329 278.787 85.2653 277.993 86.2501 277.297C88.8766 275.441 92.2315 274.871 94.9865 273.173C95.8305 272.653 97.3982 270.366 95.256 270.434C94.3012 270.465 92.8952 271.492 92.0421 271.905C89.6196 273.076 87.121 274.381 85.1975 276.304C85.3153 276.094 85.4339 275.882 85.5533 275.67C86.0977 275.17 88.6109 272.909 91.8734 270.81C95.5687 268.432 99.0206 267.173 99.5619 265.45C100.103 263.727 95.678 265.611 91.4907 268.719C89.1646 270.446 87.5576 272.43 86.5874 273.854C87.7893 271.761 89.0329 269.658 90.2457 267.647C90.9541 266.673 92.9483 264.183 95.6911 262.854C99.1499 261.178 101.964 259.78 103.06 257.425C104.156 255.069 102.802 255.528 99.3224 258.455C96.9339 260.464 93.6745 263.034 91.6863 265.275C92.6511 263.699 93.5744 262.212 94.416 260.871C95.4116 259.8 98.0234 257.12 100.599 255.571C103.87 253.603 105.433 252.186 104.126 251.651C103.221 251.281 99.4448 254.145 96.699 257.275C97.4259 256.145 97.9888 255.285 98.3253 254.783C98.4777 254.555 98.6363 254.303 98.7973 254.034C100.034 253.054 102.917 250.684 105.848 247.656C109.73 243.645 111.82 239.412 109.583 240.851Z" fill="#CCF8E6"/>
<path d="M349.161 95.0138C349.161 95.0138 346.21 86.5299 337.725 86.1611C329.241 85.7923 330.717 93.9073 324.815 96.1211C318.913 98.334 316.7 92.0632 311.535 93.5392C306.371 95.0146 309.691 99.0725 305.264 100.548C300.838 102.023 301.206 97.966 294.567 101.285C287.927 104.606 286.452 105.712 284.976 106.081C283.501 106.45 270.222 108.663 270.222 108.663H362.07C362.07 108.663 364.652 100.548 359.489 97.2275C354.325 93.9073 354.694 97.9644 349.161 95.0138Z" fill="#0ACF83"/>
<path opacity="0.7" d="M349.161 95.0138C349.161 95.0138 346.21 86.5299 337.725 86.1611C329.241 85.7923 330.717 93.9073 324.815 96.1211C318.913 98.334 316.7 92.0632 311.535 93.5392C306.371 95.0146 309.691 99.0725 305.264 100.548C300.838 102.023 301.206 97.966 294.567 101.285C287.927 104.606 286.452 105.712 284.976 106.081C283.501 106.45 270.222 108.663 270.222 108.663H362.07C362.07 108.663 364.652 100.548 359.489 97.2275C354.325 93.9073 354.694 97.9644 349.161 95.0138Z" fill="#CCF8E6"/>
<path d="M180.385 81.301C180.385 81.301 178.596 76.1574 173.452 75.9341C168.309 75.7108 169.204 80.6304 165.625 81.9717C162.048 83.3138 160.706 79.5115 157.575 80.4063C154.444 81.301 156.457 83.7604 153.774 84.6551C151.09 85.5499 151.313 83.0897 147.289 85.1025C143.264 87.1153 142.369 87.786 141.474 88.01C140.58 88.2333 132.529 89.5754 132.529 89.5754H188.21C188.21 89.5754 189.776 84.6559 186.645 82.6431C183.516 80.6304 183.739 83.0897 180.385 81.301Z" fill="#0ACF83"/>
<path opacity="0.8" d="M180.385 81.301C180.385 81.301 178.596 76.1574 173.452 75.9341C168.309 75.7108 169.204 80.6304 165.625 81.9717C162.048 83.3138 160.706 79.5115 157.575 80.4063C154.444 81.301 156.457 83.7604 153.774 84.6551C151.09 85.5499 151.313 83.0897 147.289 85.1025C143.264 87.1153 142.369 87.786 141.474 88.01C140.58 88.2333 132.529 89.5754 132.529 89.5754H188.21C188.21 89.5754 189.776 84.6559 186.645 82.6431C183.516 80.6304 183.739 83.0897 180.385 81.301Z" fill="#CCF8E6"/>
<path d="M86.7239 171.727C86.7239 171.727 84.3146 164.801 77.3892 164.5C70.4638 164.199 71.6681 170.823 66.8502 172.631C62.0323 174.437 60.2252 169.318 56.0102 170.522C51.7952 171.727 54.5048 175.039 50.8912 176.243C47.2776 177.448 47.5787 174.135 42.1586 176.846C36.7386 179.556 35.5336 180.459 34.3293 180.76C33.125 181.061 22.2842 182.868 22.2842 182.868H97.2637C97.2637 182.868 99.372 176.243 95.1562 173.533C90.9397 170.824 91.2408 174.137 86.7239 171.727Z" fill="#0ACF83"/>
<g opacity="0.7">
<path d="M86.7239 171.727C86.7239 171.727 84.3146 164.801 77.3892 164.5C70.4638 164.199 71.6681 170.823 66.8502 172.631C62.0323 174.437 60.2252 169.318 56.0102 170.522C51.7952 171.727 54.5048 175.039 50.8912 176.243C47.2776 177.448 47.5787 174.135 42.1586 176.846C36.7386 179.556 35.5336 180.459 34.3293 180.76C33.125 181.061 22.2842 182.868 22.2842 182.868H97.2637C97.2637 182.868 99.372 176.243 95.1562 173.533C90.9397 170.824 91.2408 174.137 86.7239 171.727Z" fill="#CCF8E6"/>
</g>
<path d="M175.793 309.155C220.894 309.155 257.456 306.564 257.456 303.368C257.456 300.172 220.894 297.581 175.793 297.581C130.692 297.581 94.1299 300.172 94.1299 303.368C94.1299 306.564 130.692 309.155 175.793 309.155Z" fill="#0ACF83"/>
<path d="M252.312 299.51C277.881 299.51 298.609 298.214 298.609 296.616C298.609 295.018 277.881 293.723 252.312 293.723C226.743 293.723 206.015 295.018 206.015 296.616C206.015 298.214 226.743 299.51 252.312 299.51Z" fill="#0ACF83"/>
<g opacity="0.6">
<path d="M175.793 309.155C220.894 309.155 257.456 306.564 257.456 303.368C257.456 300.172 220.894 297.581 175.793 297.581C130.692 297.581 94.1299 300.172 94.1299 303.368C94.1299 306.564 130.692 309.155 175.793 309.155Z" fill="#CCF8E6"/>
<path d="M252.312 299.51C277.881 299.51 298.609 298.214 298.609 296.616C298.609 295.018 277.881 293.723 252.312 293.723C226.743 293.723 206.015 295.018 206.015 296.616C206.015 298.214 226.743 299.51 252.312 299.51Z" fill="#CCF8E6"/>
</g>
<path d="M175.194 217.025L189.555 206.737" stroke="#254337" stroke-width="0.8351" stroke-miterlimit="10" stroke-linecap="round" stroke-linejoin="round"/>
<path d="M220.593 288.489L219.777 297.616C219.777 297.616 215.695 299.404 215.699 300.01C215.705 300.617 216.488 301.431 219.803 301.431C223.117 301.431 224.222 300.168 224.222 299.221C224.222 298.274 231.324 290.383 231.324 290.383C231.324 290.383 231.955 288.804 230.851 287.542C229.746 286.279 225.958 286.122 225.958 286.122L220.593 288.489Z" fill="#0ACF83"/>
<path d="M215.705 300.617C215.705 300.617 221.259 300.25 222.742 299.403C224.225 298.555 229.522 290.504 229.945 289.869C230.369 289.233 230.369 288.174 230.369 288.174" stroke="#254337" stroke-width="0.4175" stroke-miterlimit="10" stroke-linecap="round" stroke-linejoin="round"/>
<path d="M227.708 286.256C227.708 286.256 232.209 287.113 231.78 289.043C231.351 290.972 224.278 299.546 223.206 300.618C222.135 301.689 215.49 301.689 215.704 300.618C215.918 299.546 219.777 297.617 219.777 297.617L221.063 289.901" stroke="#254337" stroke-width="0.8351" stroke-miterlimit="10" stroke-linecap="round" stroke-linejoin="round"/>
<path d="M132.841 295.907L119.583 302.378C119.583 302.378 117.847 303.641 121.32 303.641C124.792 303.641 143.1 303.799 143.1 303.799C143.1 303.799 145.152 304.272 145.625 303.325C146.389 301.798 146.73 300.801 146.256 300.327C145.782 299.853 132.841 295.907 132.841 295.907Z" fill="#0ACF83"/>
<path d="M120.83 302.157C120.83 302.157 143.077 302.157 143.712 302.157C144.347 302.157 144.348 302.157 144.348 302.157" stroke="#254337" stroke-width="0.4175" stroke-miterlimit="10" stroke-linecap="round" stroke-linejoin="round"/>
<path d="M131.945 296.729C131.945 296.729 118.441 302.517 118.656 303.16C118.87 303.803 132.373 303.803 137.518 303.803C142.662 303.803 146.306 304.017 146.306 302.731" stroke="#254337" stroke-width="0.8351" stroke-miterlimit="10" stroke-linecap="round" stroke-linejoin="round"/>
<path d="M227.708 286.256L183.125 253.677L181.625 220.882C181.625 220.882 178.884 223.34 176.129 224.399C173.375 225.458 157.404 233.528 157.404 233.528C157.404 233.528 164.478 258.605 165.763 260.749C167.049 262.893 221.063 289.899 221.063 289.899L227.708 286.256Z" fill="#254337"/>
<path d="M146.305 301.445C146.305 301.445 144.59 301.016 142.662 300.588C140.733 300.159 131.945 296.73 131.945 296.73C131.945 296.73 131.731 296.087 131.731 294.587C131.731 293.087 133.017 292.229 133.017 292.229C133.017 292.229 99.58 247.647 98.7223 246.36C97.8652 245.074 98.5082 242.93 104.295 238.43C110.082 233.928 147.974 210.809 147.974 210.809C146.514 209.084 149.26 208.022 149.26 208.022L152.689 209.094L175.195 217.025L184.197 211.023C184.197 211.023 185.698 216.596 180.124 220.883C174.551 225.17 123.586 247.861 123.586 247.861L122.738 247.918L145.663 298.016C145.663 298.016 147.203 300.733 146.305 301.445Z" fill="#254337"/>
<path d="M117.864 242.197L122.102 247.494L120.407 240.502" stroke="#CCF8E6" stroke-width="0.8351" stroke-miterlimit="10" stroke-linecap="round" stroke-linejoin="round"/>
<path d="M159.604 233.934C159.604 233.934 168.291 247.493 171.468 250.248" stroke="#CCF8E6" stroke-width="0.8351" stroke-miterlimit="10" stroke-linecap="round" stroke-linejoin="round"/>
<path d="M160.875 233.51C160.875 233.51 163.629 236.053 168.503 239.231" stroke="#CCF8E6" stroke-width="0.8351" stroke-miterlimit="10" stroke-linecap="round" stroke-linejoin="round"/>
<path d="M176.106 161.726L146.033 182.221L152.606 209.323L174.927 216.807L204.714 195.586L201.113 168.32L176.106 161.726Z" fill="#0ACF83"/>
<path d="M146.193 182.222L148.101 190.692" stroke="#254337" stroke-width="0.8351" stroke-miterlimit="10" stroke-linecap="round" stroke-linejoin="round"/>
<path d="M149.688 196.877L152.689 209.095L175.195 217.025L172.408 196.877" stroke="#254337" stroke-width="0.8351" stroke-miterlimit="10" stroke-linecap="round" stroke-linejoin="round"/>
<path d="M172.194 195.162L171.336 190.019" stroke="#254337" stroke-width="0.8351" stroke-miterlimit="10" stroke-linecap="round" stroke-linejoin="round"/>
<path d="M198.771 200.306L204.773 195.805L201.772 170.299" stroke="#254337" stroke-width="0.8351" stroke-miterlimit="10" stroke-linecap="round" stroke-linejoin="round"/>
<path d="M174.338 188.518L190.627 176.3" stroke="#254337" stroke-width="0.8351" stroke-miterlimit="10" stroke-linecap="round" stroke-linejoin="round"/>
<path d="M189.77 165.369L176.266 161.726L146.688 181.873" stroke="#254337" stroke-width="0.8351" stroke-miterlimit="10" stroke-linecap="round" stroke-linejoin="round"/>
<path d="M146.901 182.73L151.403 184.016" stroke="#254337" stroke-width="0.8351" stroke-miterlimit="10" stroke-linecap="round" stroke-linejoin="round"/>
<path d="M159.119 185.731L171.336 189.161" stroke="#254337" stroke-width="0.8351" stroke-miterlimit="10" stroke-linecap="round" stroke-linejoin="round"/>
<path d="M187.626 164.94L169.193 179.087" stroke="#254337" stroke-width="0.4175" stroke-miterlimit="10" stroke-linecap="round" stroke-linejoin="round"/>
<path d="M167.692 180.373L161.048 185.517" stroke="#254337" stroke-width="0.4175" stroke-miterlimit="10" stroke-linecap="round" stroke-linejoin="round"/>
<path d="M188.085 153.116C188.085 153.116 192.77 191.732 192.77 193.447C192.77 195.162 188.484 196.019 188.484 198.163C188.484 200.306 187.412 203.307 187.412 203.307C187.412 203.307 186.555 204.164 186.555 204.808C186.555 205.451 188.055 205.237 189.341 204.594C190.627 203.951 191.056 201.593 191.056 201.593C191.056 201.593 190.413 204.808 190.413 205.88L189.556 206.737C189.556 206.737 186.984 209.094 188.699 209.308C190.414 209.522 198.344 206.522 198.773 204.593C199.202 202.664 197.701 193.447 197.701 193.447C197.701 193.447 203.917 149.937 203.917 145.864C203.917 141.792 200.488 140.506 200.488 140.506" fill="#CCF8E6"/>
<mask id="mask0_2443_822" style="mask-type:luminance" maskUnits="userSpaceOnUse" x="186" y="140" width="18" height="70">
<path d="M188.085 153.116C188.085 153.116 192.77 191.732 192.77 193.447C192.77 195.162 188.484 196.019 188.484 198.163C188.484 200.306 187.412 203.307 187.412 203.307C187.412 203.307 186.555 204.164 186.555 204.808C186.555 205.451 188.055 205.237 189.341 204.594C190.627 203.951 191.056 201.593 191.056 201.593C191.056 201.593 190.413 204.808 190.413 205.88L189.556 206.737C189.556 206.737 186.984 209.094 188.699 209.308C190.414 209.522 198.344 206.522 198.773 204.593C199.202 202.664 197.701 193.447 197.701 193.447C197.701 193.447 203.917 149.937 203.917 145.864C203.917 141.792 200.488 140.506 200.488 140.506" fill="white"/>
</mask>
<g mask="url(#mask0_2443_822)">
<path opacity="0.3" d="M203.886 151.319C202.99 147.893 202.008 141.675 202.008 141.675L197.93 140.434L192.519 146.911L196.773 144.293C196.773 144.293 196.773 193.05 196.773 195.668C196.773 198.286 193.5 208.43 193.5 208.43C193.5 208.43 200.273 207.002 199.178 200.844C198.082 194.687 196.773 195.668 198.736 183.233C200.699 170.799 204.783 154.745 203.886 151.319Z" fill="#0ACF83"/>
</g>
<path d="M188.085 153.116C188.085 153.116 192.77 191.732 192.77 193.447C192.77 195.162 188.484 196.019 188.484 198.163C188.484 200.306 187.412 203.307 187.412 203.307C187.412 203.307 186.555 204.164 186.555 204.808C186.555 205.451 188.055 205.237 189.341 204.594C190.627 203.951 191.056 201.593 191.056 201.593C191.056 201.593 190.413 204.808 190.413 205.88L189.556 206.737C189.556 206.737 186.984 209.094 188.699 209.308C190.414 209.523 198.344 206.522 198.773 204.593C199.202 202.664 197.701 193.447 197.701 193.447C197.701 193.447 203.917 149.937 203.917 145.864C203.917 141.792 200.488 140.506 200.488 140.506" stroke="#254337" stroke-width="0.8351" stroke-miterlimit="10" stroke-linecap="round" stroke-linejoin="round"/>
<path d="M193.291 204.272C193.291 204.272 193.715 205.967 193.08 207.026C192.444 208.086 191.597 208.933 191.597 208.933" stroke="#254337" stroke-width="0.4175" stroke-miterlimit="10" stroke-linecap="round" stroke-linejoin="round"/>
<path d="M195.834 204.272C195.834 204.272 195.623 205.755 195.198 206.815" stroke="#254337" stroke-width="0.4175" stroke-miterlimit="10" stroke-linecap="round" stroke-linejoin="round"/>
<path d="M197.741 203.636C197.741 203.636 197.53 205.119 197.105 206.178" stroke="#254337" stroke-width="0.4175" stroke-miterlimit="10" stroke-linecap="round" stroke-linejoin="round"/>
<path d="M128.501 123.388C128.255 121.168 123.817 116.977 117.653 115.745C111.49 114.513 104.834 114.513 102.368 116.484C101.448 117.221 100.837 118.918 100.433 120.756C100.869 119.813 101.755 117.91 102.668 117.149C107.208 113.366 108.469 115.636 109.226 118.915C109.983 122.193 108.973 131.272 108.973 131.272C108.973 131.272 98.6329 134.298 100.146 129.002C100.146 129.002 99.8472 128.069 99.6832 126.702C99.6616 127.098 99.6554 127.332 99.6554 127.332L99.1626 130.537L94.9715 131.276L80.417 130.816C80.417 130.816 87.8221 135.467 92.0132 135.467C96.2043 135.467 99.389 132.611 99.389 132.611L126.308 134.663C126.308 134.663 128.748 125.606 128.501 123.388Z" fill="#0ACF83"/>
<path d="M97.0823 131.074L80.418 130.817C80.418 130.817 85.0326 135.176 91.1856 135.176C97.3387 135.176 99.39 132.612 99.39 132.612L126.309 134.663C126.309 134.663 129.83 127.962 128.035 122.066C126.24 116.169 110.069 114.2 105.576 115.286C100.012 116.63 99.6464 121.332 99.6464 123.896C99.6464 126.46 99.1336 129.536 99.1336 129.536" stroke="#254337" stroke-width="0.8351" stroke-miterlimit="10" stroke-linecap="round" stroke-linejoin="round"/>
<mask id="mask1_2443_822" style="mask-type:luminance" maskUnits="userSpaceOnUse" x="96" y="133" width="32" height="34">
<path d="M98.3638 133.38C98.3638 133.38 95.5433 140.046 96.8254 141.072C98.1074 142.098 98.8766 142.61 98.8766 142.61C98.8766 142.61 99.6459 151.584 100.928 153.122C102.21 154.66 110.414 152.096 110.414 152.096C110.414 152.096 127.078 168.76 127.591 165.684C128.104 162.608 126.052 151.07 126.052 149.789C126.052 148.507 122.463 145.174 122.463 145.174" fill="white"/>
</mask>
<g mask="url(#mask1_2443_822)">
<path opacity="0.3" d="M112.661 133.76L101.778 133.951C101.778 133.951 98.7237 138.533 99.4875 139.87C100.251 141.207 101.778 142.161 101.778 142.161C101.778 142.161 101.014 148.271 101.969 150.37C102.924 152.471 110.561 151.516 110.561 151.516C110.561 151.516 108.651 152.853 105.024 153.235C101.396 153.617 100.251 152.853 99.6777 150.753C99.1048 148.653 98.8769 142.61 98.8769 142.61L96.2412 139.87L98.1508 134.715L100.251 132.614L112.661 133.76Z" fill="#0ACF83"/>
</g>
<path d="M98.3638 133.38C98.3638 133.38 95.5433 140.046 96.8254 141.072C98.1074 142.098 98.8766 142.61 98.8766 142.61C98.8766 142.61 99.6459 151.584 100.928 153.122C102.21 154.66 110.414 152.096 110.414 152.096C110.414 152.096 127.078 168.76 127.591 165.684C128.104 162.608 126.052 151.07 126.052 149.789C126.052 148.507 122.463 145.174 122.463 145.174" stroke="#254337" stroke-width="0.8351" stroke-miterlimit="10" stroke-linecap="round" stroke-linejoin="round"/>
<path d="M113.234 133.637C113.234 133.637 113.747 135.944 115.286 136.2C116.824 136.456 118.106 133.892 118.106 133.892L113.234 133.637Z" fill="#254337"/>
<path d="M126.309 134.663C126.309 134.663 127.848 139.277 126.053 141.841C124.258 144.405 123.489 144.405 123.489 144.405C121.95 146.969 117.849 141.329 117.849 141.329C117.849 141.329 120.923 141.19 121.692 139.139C122.462 137.088 121.385 134.097 121.385 134.097L126.309 134.663Z" fill="#254337"/>
<path d="M121.694 134.663C121.694 134.663 122.464 138.252 121.694 140.046C120.925 141.841 117.849 141.328 117.849 141.328L116.311 145.174" stroke="#254337" stroke-width="0.8351" stroke-miterlimit="10" stroke-linecap="round" stroke-linejoin="round"/>
<path d="M100.703 144.1C100.703 144.1 103.669 144.736 105.576 141.345" stroke="#254337" stroke-width="0.6263" stroke-miterlimit="10" stroke-linecap="round" stroke-linejoin="round"/>
<path d="M153.475 160.76L147.176 163.081L150.734 172.74L157.034 170.419L153.475 160.76Z" fill="#254337"/>
<path d="M152.38 162.931L149.37 164.04L151.02 168.519L154.031 167.411L152.38 162.931Z" fill="#CCF8E6"/>
<path d="M150.149 159.281L148.819 159.771L149.902 162.711L151.233 162.221L150.149 159.281Z" fill="#CCF8E6" stroke="#254337" stroke-width="0.4175" stroke-miterlimit="10" stroke-linecap="round" stroke-linejoin="round"/>
<path d="M143.549 201.519L149.259 208.022" stroke="#254337" stroke-width="0.8351" stroke-miterlimit="10" stroke-linecap="round" stroke-linejoin="round"/>
<mask id="mask2_2443_822" style="mask-type:luminance" maskUnits="userSpaceOnUse" x="176" y="75" width="159" height="211">
<path d="M177.263 134.639L178.699 135.191L199.247 138.947C199.247 138.947 202.598 140.708 203.776 142.592C204.953 144.475 203.886 151.319 203.886 151.319L201.764 167.442L205.178 196.344L199.176 200.845L199.41 203.704C199.567 203.753 199.371 207.517 190.462 209.12C190.462 209.12 188.616 210.037 188.077 209.633C186.712 208.609 187.807 208.689 187.807 208.689L184.198 211.023C184.198 211.023 184.577 213.359 183.635 216.419C182.693 219.48 182.046 220.1 182.046 220.1L183.685 248.703L187.638 254.33L239.206 285.647H334.335V75.8452H176.1V134.197L177.263 134.639Z" fill="white"/>
</mask>
<g mask="url(#mask2_2443_822)">
<path d="M202.161 121.234L196.507 124.499L193.309 118.923L198.963 115.659L202.161 121.234Z" stroke="#254337" stroke-width="0.8351" stroke-miterlimit="10" stroke-linecap="round" stroke-linejoin="round"/>
<path d="M200.252 114.883L191.342 120.028L186.037 110.202L194.947 105.058L200.252 114.883Z" stroke="#254337" stroke-width="0.8351" stroke-miterlimit="10" stroke-linecap="round" stroke-linejoin="round"/>
<path d="M286.02 239.724C312.77 212.974 312.77 169.604 286.02 142.854C259.27 116.105 215.9 116.105 189.151 142.854C162.401 169.604 162.401 212.974 189.151 239.724C215.9 266.473 259.27 266.474 286.02 239.724Z" fill="#CCF8E6"/>
<path d="M238.191 111.034C194.522 111.034 159.12 146.436 159.12 190.105C159.12 233.775 194.522 269.177 238.191 269.177C281.861 269.177 317.263 233.775 317.263 190.105C317.263 146.436 281.861 111.034 238.191 111.034ZM238.191 258.603C200.361 258.603 169.694 227.936 169.694 190.105C169.694 152.275 200.361 121.608 238.191 121.608C276.022 121.608 306.689 152.275 306.689 190.105C306.689 227.936 276.022 258.603 238.191 258.603Z" fill="#254337" stroke="#254337" stroke-width="0.8351" stroke-miterlimit="10" stroke-linecap="round" stroke-linejoin="round"/>
<path d="M286.709 130.464C278.926 124.125 269.878 119.279 260.004 116.362" stroke="#CCF8E6" stroke-width="1.6702" stroke-miterlimit="10" stroke-linecap="round" stroke-linejoin="round"/>
<path d="M252.717 114.594C249.946 114.065 247.121 113.684 244.253 113.459" stroke="#CCF8E6" stroke-width="1.6702" stroke-miterlimit="10" stroke-linecap="round" stroke-linejoin="round"/>
<path d="M295.862 232.376C304.555 220.536 309.69 205.92 309.69 190.105C309.69 173.38 303.947 157.996 294.326 145.817" stroke="#CCF8E6" stroke-width="0.8351" stroke-miterlimit="10" stroke-linecap="round" stroke-linejoin="round"/>
<path d="M285.871 243.385C288.113 241.376 290.229 239.229 292.202 236.955" stroke="#CCF8E6" stroke-width="0.8351" stroke-miterlimit="10" stroke-linecap="round" stroke-linejoin="round"/>
<path d="M209.123 255.447C218.004 259.404 227.841 261.603 238.191 261.603C255.157 261.603 270.744 255.694 283.003 245.821" stroke="#CCF8E6" stroke-width="0.8351" stroke-miterlimit="10" stroke-linecap="round" stroke-linejoin="round"/>
<path d="M198.924 249.865C201.055 251.269 203.267 252.561 205.549 253.734" stroke="#CCF8E6" stroke-width="0.8351" stroke-miterlimit="10" stroke-linecap="round" stroke-linejoin="round"/>
<path d="M191.254 244.042C193.055 245.61 194.935 247.089 196.887 248.474" stroke="#CCF8E6" stroke-width="0.8351" stroke-miterlimit="10" stroke-linecap="round" stroke-linejoin="round"/>
<path d="M218.416 121.376C188.547 129.955 166.692 157.477 166.692 190.105C166.692 210.711 175.41 229.283 189.359 242.331" stroke="#CCF8E6" stroke-width="0.8351" stroke-miterlimit="10" stroke-linecap="round" stroke-linejoin="round"/>
<path d="M288.748 139.548C275.81 126.609 257.935 118.606 238.191 118.606C233.285 118.606 228.494 119.1 223.866 120.041" stroke="#CCF8E6" stroke-width="0.8351" stroke-miterlimit="10" stroke-linecap="round" stroke-linejoin="round"/>
<path d="M248.439 215.435H227.862V221.007H248.439V215.435Z" fill="#0ACF83"/>
<path d="M243.932 190.105C243.932 187.287 241.899 184.947 239.221 184.461L238.618 146.83H237.763L237.16 184.46C234.482 184.947 232.449 187.286 232.449 190.104C232.449 192.859 234.39 195.159 236.979 195.715L236.765 209.069H239.616L239.402 195.715C241.991 195.159 243.932 192.86 243.932 190.105ZM238.191 193.187C236.489 193.187 235.108 191.807 235.108 190.104C235.108 188.402 236.489 187.021 238.191 187.021C239.894 187.021 241.274 188.402 241.274 190.104C241.274 191.808 239.894 193.187 238.191 193.187Z" fill="#254337"/>
<path d="M238.191 193.271C239.939 193.271 241.357 191.854 241.357 190.105C241.357 188.357 239.939 186.939 238.191 186.939C236.442 186.939 235.024 188.357 235.024 190.105C235.024 191.854 236.442 193.271 238.191 193.271Z" fill="#0ACF83"/>
<path d="M238.191 125.449V136.852" stroke="#254337" stroke-width="3.3403" stroke-miterlimit="10" stroke-linecap="round" stroke-linejoin="round"/>
<path d="M238.191 243.753V255.155" stroke="#254337" stroke-width="3.3403" stroke-miterlimit="10" stroke-linecap="round" stroke-linejoin="round"/>
<path d="M205.765 134.138L211.466 144.013" stroke="#254337" stroke-width="3.3403" stroke-miterlimit="10" stroke-linecap="round" stroke-linejoin="round"/>
<path d="M264.916 236.592L270.617 246.466" stroke="#254337" stroke-width="3.3403" stroke-miterlimit="10" stroke-linecap="round" stroke-linejoin="round"/>
<path d="M182.026 157.876L191.902 163.577" stroke="#254337" stroke-width="3.3403" stroke-miterlimit="10" stroke-linecap="round" stroke-linejoin="round"/>
<path d="M284.479 217.028L294.355 222.729" stroke="#254337" stroke-width="3.3403" stroke-miterlimit="10" stroke-linecap="round" stroke-linejoin="round"/>
<path d="M303.044 190.302H291.641" stroke="#254337" stroke-width="3.3403" stroke-miterlimit="10" stroke-linecap="round" stroke-linejoin="round"/>
<path d="M184.741 190.302H173.338" stroke="#254337" stroke-width="3.3403" stroke-miterlimit="10" stroke-linecap="round" stroke-linejoin="round"/>
<path d="M303.044 190.302H291.641" stroke="#254337" stroke-width="3.3403" stroke-miterlimit="10" stroke-linecap="round" stroke-linejoin="round"/>
<path d="M184.741 190.302H173.338" stroke="#254337" stroke-width="3.3403" stroke-miterlimit="10" stroke-linecap="round" stroke-linejoin="round"/>
<path d="M294.355 157.876L284.479 163.577" stroke="#254337" stroke-width="3.3403" stroke-miterlimit="10" stroke-linecap="round" stroke-linejoin="round"/>
<path d="M191.902 217.028L182.026 222.729" stroke="#254337" stroke-width="3.3403" stroke-miterlimit="10" stroke-linecap="round" stroke-linejoin="round"/>
<path d="M270.617 134.138L264.916 144.013" stroke="#254337" stroke-width="3.3403" stroke-miterlimit="10" stroke-linecap="round" stroke-linejoin="round"/>
<path d="M211.466 236.592L205.765 246.466" stroke="#254337" stroke-width="3.3403" stroke-miterlimit="10" stroke-linecap="round" stroke-linejoin="round"/>
<path d="M241.456 108.544H234.927V114.321H241.456V108.544Z" stroke="#254337" stroke-width="0.8351" stroke-miterlimit="10" stroke-linecap="round" stroke-linejoin="round"/>
<path d="M243.335 93.1162H233.047V108.213H243.335V93.1162Z" stroke="#254337" stroke-width="0.8351" stroke-miterlimit="10" stroke-linecap="round" stroke-linejoin="round"/>
<path d="M245.475 82.4917H230.586V92.7797H245.475V82.4917Z" fill="#0ACF83"/>
<path d="M245.636 82.4917H230.747V92.7797H245.636V82.4917Z" stroke="#254337" stroke-width="0.8351" stroke-miterlimit="10" stroke-linecap="round" stroke-linejoin="round"/>
<path d="M232.399 88.888V82.7241" stroke="#254337" stroke-width="0.8351" stroke-miterlimit="10" stroke-linecap="round" stroke-linejoin="round"/>
<path d="M232.399 92.966V90.311" stroke="#254337" stroke-width="0.8351" stroke-miterlimit="10" stroke-linecap="round" stroke-linejoin="round"/>
<path d="M234.296 92.9659V82.7241" stroke="#254337" stroke-width="0.8351" stroke-miterlimit="10" stroke-linecap="round" stroke-linejoin="round"/>
<path d="M236.192 85.2844V82.7241" stroke="#254337" stroke-width="0.8351" stroke-miterlimit="10" stroke-linecap="round" stroke-linejoin="round"/>
<path d="M236.192 92.9658V86.5171" stroke="#254337" stroke-width="0.8351" stroke-miterlimit="10" stroke-linecap="round" stroke-linejoin="round"/>
<path d="M239.322 92.9659V82.7241" stroke="#254337" stroke-width="0.8351" stroke-miterlimit="10" stroke-linecap="round" stroke-linejoin="round"/>
</g>
<path opacity="0.3" d="M129.463 164.119L135 164.501L134.809 162.4C134.809 162.4 129.845 162.018 129.463 164.119Z" fill="#0ACF83"/>
<mask id="mask3_2443_822" style="mask-type:luminance" maskUnits="userSpaceOnUse" x="107" y="163" width="19" height="49">
<path d="M117.324 163.012C117.324 163.012 108.322 170.299 108.322 172.229C108.322 174.157 107.679 210.381 108.107 211.238C108.536 212.096 125.469 200.307 125.469 200.307L123.754 184.66" fill="white"/>
</mask>
<g mask="url(#mask3_2443_822)">
<path opacity="0.3" d="M114.204 207.801L125.469 200.307L111.037 205.814C111.037 205.814 109.728 176.363 110.71 174.072C111.691 171.781 117.909 167.528 117.909 167.528C117.909 167.528 117.539 165.156 119.545 164.255C121.552 163.355 123.8 164.255 123.8 164.255L125.228 164.794C123.583 163.87 120.94 161.999 116.863 158.2L116.77 158.207L117.754 159.154L117.326 163.012L113.002 166.546C112.02 167.528 108.323 172.229 108.323 172.229L108.109 211.239L113.984 207.451C113.982 207.45 114.063 207.576 114.204 207.801Z" fill="#0ACF83"/>
</g>
<path d="M117.324 163.012C117.324 163.012 108.322 170.299 108.322 172.229C108.322 174.157 107.679 210.381 108.107 211.238C108.536 212.096 125.469 200.307 125.469 200.307L123.754 184.66" stroke="#254337" stroke-width="0.8351" stroke-miterlimit="10" stroke-linecap="round" stroke-linejoin="round"/>
<path d="M119.038 180.802L137.257 195.377" stroke="#254337" stroke-width="0.8351" stroke-miterlimit="10" stroke-linecap="round" stroke-linejoin="round"/>
<mask id="mask4_2443_822" style="mask-type:luminance" maskUnits="userSpaceOnUse" x="131" y="131" width="68" height="27">
<path d="M131.375 147.874C131.375 147.874 149.047 131.075 151.189 131.075C153.332 131.075 188.698 138.148 191.271 138.577C193.843 139.006 198.13 139.863 198.13 139.863C198.13 139.863 190.628 149.294 188.056 152.509C185.484 155.724 184.198 157.653 184.198 157.653L155.262 144.365" fill="white"/>
</mask>
<g mask="url(#mask4_2443_822)">
<path opacity="0.3" d="M197.931 140.434L186.956 137.094L151.19 131.074L142.125 141.02C142.125 141.02 149.979 136.112 152.269 136.112C154.453 136.112 189.048 145.924 192.277 146.842L197.931 140.434Z" fill="#0ACF83"/>
</g>
<path d="M131.375 147.874C131.375 147.874 149.047 131.075 151.189 131.075C153.332 131.075 188.698 138.148 191.271 138.577C193.843 139.006 198.13 139.863 198.13 139.863C198.13 139.863 190.628 149.294 188.056 152.509C185.484 155.724 184.198 157.653 184.198 157.653L155.262 144.365" stroke="#254337" stroke-width="0.8351" stroke-miterlimit="10" stroke-linecap="round" stroke-linejoin="round"/>
<path d="M160.191 147.58L167.479 166.87" stroke="#254337" stroke-width="0.8351" stroke-miterlimit="10" stroke-linecap="round" stroke-linejoin="round"/>
<path d="M137.9 176.515L136.185 178.23L127.826 167.512" stroke="#254337" stroke-width="0.8351" stroke-miterlimit="10" stroke-linecap="round" stroke-linejoin="round"/>
<path d="M151.977 148.337L160.451 146.854L153.248 151.939" stroke="#254337" stroke-width="0.4175" stroke-miterlimit="10" stroke-linecap="round" stroke-linejoin="round"/>
<path d="M123.753 184.66L112.991 183.085" stroke="#254337" stroke-width="0.4175" stroke-miterlimit="10" stroke-linecap="round" stroke-linejoin="round"/>
<path d="M117.753 159.153C117.753 159.153 116.467 161.94 117.539 165.155C118.611 168.369 122.254 173.943 122.254 173.943L126.97 167.298" stroke="#254337" stroke-width="0.8351" stroke-miterlimit="10" stroke-linecap="round" stroke-linejoin="round"/>
<path d="M128.469 164.726C128.469 164.726 130.827 162.583 132.971 162.583C135.114 162.583 136.614 162.583 136.614 162.583C136.614 162.583 135.971 154.224 132.971 149.722C129.97 145.221 125.897 147.579 125.897 147.579" stroke="#254337" stroke-width="0.8351" stroke-miterlimit="10" stroke-linecap="round" stroke-linejoin="round"/>
<path d="M124.611 201.592L150.332 189.59L152.476 182.087L161.264 180.159C161.264 180.159 162.979 178.444 162.765 180.159C162.55 181.873 160.193 182.516 159.335 184.231C158.478 185.946 158.478 189.376 157.406 190.875C156.334 192.376 152.477 194.09 152.477 194.09C152.477 194.09 123.541 218.311 121.397 219.596C119.253 220.882 114.967 208.665 114.967 208.665" fill="#CCF8E6"/>
<mask id="mask5_2443_822" style="mask-type:luminance" maskUnits="userSpaceOnUse" x="114" y="179" width="49" height="41">
<path d="M124.611 201.592L150.332 189.59L152.476 182.087L161.264 180.159C161.264 180.159 162.979 178.444 162.765 180.159C162.55 181.873 160.193 182.516 159.335 184.231C158.478 185.946 158.478 189.376 157.406 190.875C156.334 192.376 152.477 194.09 152.477 194.09C152.477 194.09 123.541 218.311 121.397 219.596C119.253 220.882 114.967 208.665 114.967 208.665" fill="white"/>
</mask>
<g mask="url(#mask5_2443_822)">
<path opacity="0.3" d="M114.203 207.801C115.203 209.395 119.257 215.995 119.545 218.576C119.872 221.521 122.49 218.576 122.49 218.576L146.051 198.941C146.051 198.941 122.817 213.667 120.854 213.012C118.89 212.358 118.563 207.449 118.563 207.449L125.468 200.306L114.203 207.801Z" fill="#0ACF83"/>
</g>
<path d="M124.611 201.592L150.332 189.59L152.476 182.087L161.264 180.159C161.264 180.159 162.979 178.444 162.765 180.159C162.55 181.873 160.193 182.516 159.335 184.231C158.478 185.946 158.478 189.376 157.406 190.875C156.334 192.376 152.477 194.09 152.477 194.09C152.477 194.09 123.541 218.311 121.397 219.596C119.253 220.882 114.967 208.665 114.967 208.665" stroke="#254337" stroke-width="0.8351" stroke-miterlimit="10" stroke-linecap="round" stroke-linejoin="round"/>
<path d="M161.262 180.159C161.262 180.159 157.06 182.66 157.484 183.508" stroke="#254337" stroke-width="0.4175" stroke-miterlimit="10" stroke-linecap="round" stroke-linejoin="round"/>
<path d="M157.908 180.966L154.73 182.661" stroke="#254337" stroke-width="0.4175" stroke-miterlimit="10" stroke-linecap="round" stroke-linejoin="round"/>
</svg>
