<svg width="32" height="32" viewBox="0 0 32 32" fill="none" xmlns="http://www.w3.org/2000/svg">
<path d="M8.2675 27.9999H2.4625V9.30611H8.2675V27.9999ZM5.36188 6.75611C3.50563 6.75611 2 5.21861 2 3.36236C2 2.47074 2.3542 1.61563 2.98467 0.985159C3.61514 0.354685 4.47025 0.000488281 5.36188 0.000488281C6.2535 0.000488281 7.10861 0.354685 7.73908 0.985159C8.36955 1.61563 8.72375 2.47074 8.72375 3.36236C8.72375 5.21861 7.2175 6.75611 5.36188 6.75611ZM29.9937 27.9999H24.2013V18.8999C24.2013 16.7311 24.1575 13.9499 21.1831 13.9499C18.165 13.9499 17.7025 16.3061 17.7025 18.7436V27.9999H11.9038V9.30611H17.4712V11.8561H17.5525C18.3275 10.3874 20.2206 8.83736 23.045 8.83736C28.92 8.83736 30 12.7061 30 17.7311V27.9999H29.9937Z" fill="#0A66C2"/>
</svg>
