<svg xmlns="http://www.w3.org/2000/svg" width="400" height="400" id="24-hours-board"><path fill="#FFBE55" d="m301.687 151.062-9.521 10.168-61.559-57.624-18.518-17.326-.252-.224a16.95 16.95 0 0 0-11.893-4.819 17.015 17.015 0 0 0-10.498 3.596 14.072 14.072 0 0 0-2.285 2.171l-17.854 16.711-61.471 57.516-9.523-10.168 78.598-73.557.084-.082 3.398-3.176a30.582 30.582 0 0 1 5.764-3.732 31.3 31.3 0 0 1 13.787-3.204c4.959 0 9.664 1.173 13.842 3.262a29.793 29.793 0 0 1 6.797 4.593l1.42 1.338 79.684 74.557z"></path><linearGradient id="a" x1="188.304" x2="188.304" y1="84.833" y2="87.004" gradientUnits="userSpaceOnUse"><stop offset="0" stop-color="#29abe2"></stop><stop offset="1" stop-color="#0071bc"></stop></linearGradient><path fill="url(#a)" d="m189.447 84.833-2.285 2.171a14.072 14.072 0 0 1 2.285-2.171z"></path><path fill="#2A94F4" d="M360.15 164.87v117.22c0 8.29-6.72 15-15 15H54.85c-8.28 0-15-6.71-15-15V164.87c0-8.29 6.72-15 15-15h290.3c8.28 0 15 6.71 15 15z"></path><path fill="#F7F7F7" d="M152.464 256.806h-27.591c-3.522 0-5.954-2.432-5.954-5.535 0-1.174.083-2.684.671-3.941 3.354-7.38 9.477-12.747 15.431-18.114 4.612-4.193 11.321-8.974 11.321-15.179 0-4.277-2.684-7.632-7.883-7.632-2.852 0-5.032.503-7.045 1.342-1.845.755-3.522 2.265-5.954 2.265-2.852 0-5.703-2.013-5.703-5.116 0-6.122 11.993-8.722 18.785-8.722 12.244 0 19.372 7.548 19.372 17.024 0 7.128-2.767 11.824-6.625 15.85-5.618 5.871-12.998 11.07-17.527 17.276h18.702c3.271 0 5.786 2.264 5.786 5.199s-2.516 5.283-5.786 5.283zm46.875-4.613c0 3.019-2.516 5.283-5.786 5.283s-5.787-2.265-5.787-5.283v-6.877h-18.449c-3.522 0-5.954-2.684-5.954-5.702 0-.336.335-1.846.839-2.936l16.102-37.151c.838-2.013 3.019-3.271 5.199-3.271 2.852 0 5.786 2.516 5.786 5.451 0 .503 0 1.09-.335 1.845-4.864 11.238-8.806 20.044-13.67 31.281h10.482v-12.831c0-3.02 2.517-5.283 5.787-5.283 3.103 0 5.786 2.264 5.786 5.283v12.831h1.091c3.187 0 5.618 2.432 5.618 5.199 0 2.936-2.432 5.283-5.618 5.283h-1.091v6.878zm16.769 4.781c-1.007 2.6-3.69 3.941-6.374 3.521-3.019-.587-5.451-3.354-4.528-6.037l21.888-57.697c1.007-2.601 3.606-3.942 6.29-3.438 2.852.503 4.864 3.271 4.612 5.87a4.456 4.456 0 0 1-.419 1.258l-21.469 56.523zm62.055-51.325-20.882 48.473c-.671 1.51-2.013 3.354-5.199 3.354-3.103 0-6.038-1.761-6.038-4.948 0-.503.084-1.509.419-2.264l18.366-41.932h-19.036c-3.02 0-5.703-2.348-5.703-5.367 0-2.935 2.516-5.367 5.703-5.367h26.836c3.271 0 6.037 2.433 6.037 5.619 0 .588-.083 1.678-.503 2.432z"></path></svg>