<svg width="28" height="34" viewBox="0 0 28 34" fill="none" xmlns="http://www.w3.org/2000/svg">
<path d="M18.9001 5.64992C19.5302 4.92372 20.0106 4.0802 20.3138 3.16781C20.617 2.25542 20.7369 1.29213 20.6668 0.333252C18.7324 0.489397 16.9368 1.39918 15.6668 2.86659C15.0586 3.56988 14.5977 4.38805 14.3114 5.27266C14.0252 6.15727 13.9193 7.09032 14.0001 8.01659C14.9437 8.02445 15.8764 7.81508 16.7261 7.40468C17.5758 6.99429 18.3196 6.39388 18.9001 5.64992ZM23.1001 18.0499C23.1113 16.7728 23.4477 15.5196 24.0775 14.4086C24.7074 13.2976 25.61 12.3653 26.7001 11.6999C26.0121 10.7086 25.1027 9.89131 24.0438 9.31271C22.985 8.73411 21.8059 8.41017 20.6001 8.36659C18.0001 8.09992 15.6001 9.88325 14.2168 9.88325C12.8334 9.88325 10.8834 8.39992 8.71676 8.43325C7.30031 8.47991 5.92013 8.89289 4.71084 9.6319C3.50155 10.3709 2.50444 11.4107 1.81676 12.6499C-1.11657 17.7499 1.06676 25.3333 4.0001 29.4499C5.33343 31.4666 7.0001 33.7499 9.2001 33.6666C11.4001 33.5833 12.1168 32.2999 14.6668 32.2999C17.2168 32.2999 18.0001 33.6666 20.1668 33.6166C22.3334 33.5666 23.8668 31.5499 25.2668 29.5333C26.2585 28.0691 27.0332 26.4692 27.5668 24.7833C26.2459 24.2199 25.119 23.2821 24.3252 22.0854C23.5314 20.8888 23.1055 19.4859 23.1001 18.0499Z" fill="black"/>
</svg>
