<?xml version="1.0" encoding="utf-8"?>
<!-- Generator: Adobe Illustrator 27.5.0, SVG Export Plug-In . SVG Version: 6.00 Build 0)  -->
<svg version="1.1" xmlns="http://www.w3.org/2000/svg" xmlns:xlink="http://www.w3.org/1999/xlink" x="0px" y="0px"
	 viewBox="0 0 500 500" style="enable-background:new 0 0 500 500;" xml:space="preserve">
<g id="Background_simple">
	<g>
		<g>
			<path style="fill:#C6FF00;" d="M44.904,375.509h419.291c0,0-10.116-20.231-23.266-26.806c-13.15-6.575-20.231,6.575-36.416-2.529
				c-16.185-9.104-12.644-30.347-30.852-42.991c-18.208-12.645-37.428,1.517-54.118,0.506
				c-16.691-1.012-21.748-23.266-39.956-25.795c-18.208-2.529-17.702,18.531-34.393,24.783c-16.691,6.253-28.199-3.925-39.956-3.541
				c-11.758,0.384-9.61,7.587-20.737,12.645c-11.127,5.058-13.15,2.529-34.393,4.552c-21.243,2.023-26.301,23.772-33.887,29.841
				c-7.587,6.069-17.702-3.54-33.381,0C67.158,349.714,44.904,375.509,44.904,375.509z"/>
		</g>
		<g style="opacity:0.8;">
			<path style="fill:#FFFFFF;" d="M44.904,375.509h419.291c0,0-10.116-20.231-23.266-26.806c-13.15-6.575-20.231,6.575-36.416-2.529
				c-16.185-9.104-12.644-30.347-30.852-42.991c-18.208-12.645-37.428,1.517-54.118,0.506
				c-16.691-1.012-21.748-23.266-39.956-25.795c-18.208-2.529-17.702,18.531-34.393,24.783c-16.691,6.253-28.199-3.925-39.956-3.541
				c-11.758,0.384-9.61,7.587-20.737,12.645c-11.127,5.058-13.15,2.529-34.393,4.552c-21.243,2.023-26.301,23.772-33.887,29.841
				c-7.587,6.069-17.702-3.54-33.381,0C67.158,349.714,44.904,375.509,44.904,375.509z"/>
		</g>
	</g>
</g>
<g id="Plants">
	<g>
		<g>
			<g>
				<path style="fill:#C6FF00;" d="M396.213,298.572c0.784,4.186,10.278,17.841,13.774,25.516c-0.811-1.052-1.743-2.176-2.678-3.262
					c-0.733-1.272-1.376-2.69-2.11-3.79c-1.128-1.688-2.322-3.334-3.604-4.909c-2.003-2.46-4.221-4.777-6.749-6.705
					c-2.998-2.288-6.339-3.915-10.116-4.209c-0.95-0.074-6.715-0.507-5.38,1.798c0.214,0.369,0.587,0.612,0.95,0.835
					c3.511,2.156,7.388,3.306,11.091,5.041c5.542,2.596,12.859,9.489,15.91,12.498c0.42,0.553,0.943,1.245,1.545,2.044
					c-5.446-5.08-14.349-7.971-17.395-6.573c-3.769,1.729,4.336,3.485,11.217,5.266c4.451,1.152,7.053,3.015,8.336,4.188
					c1.326,1.778,2.811,3.786,4.302,5.834c0.179,0.314,0.361,0.621,0.544,0.921c-1.079-1.213-2.316-2.429-3.563-3.283
					c-3.521-2.41-13.206-3.87-14.233-0.609c-1.026,3.261,5.856,1.768,11.761,2.708c4.045,0.644,6.976,3.032,8.422,4.473
					c0.131,0.146,0.262,0.285,0.394,0.42c0.668,0.946,1.31,1.868,1.912,2.747c1.409,2.058,2.742,3.991,4.049,5.865
					c-1.681-2.129-4.165-4.903-6.978-6.829c-5.163-3.535-12.057-4.29-14.566-2.388c-2.508,1.902,9.068,3.622,14.763,5.625
					c4.3,1.512,7.253,4.558,8.442,5.96c1.864,2.643,3.719,5.221,5.711,7.925c-2.598-2.441-6.35-5.118-10.155-7.611
					c-5.83-3.819-11.872-3.302-13.479-0.955c-1.607,2.347,3.323,2.447,12.49,4.414c6.572,1.41,10.99,4.8,12.965,6.607
					c0.845,1.132,1.716,2.291,2.63,3.496c1.039,1.37,2.242,2.77,3.519,4.15c-1.555-0.695-3.84-1.705-6.382-2.789
					c-2.841-1.211-5.591-2.513-8.212-4.14c-3.026-1.879-7.079-3.87-10.671-2.273c-1.216,0.541-1.722,1.562-1.177,2.779
					c0.336,0.749,1.049,1.25,1.764,1.645c3.968,2.192,8.931,2.766,13.304,3.743c5.396,1.205,10.017,1.702,12.172,1.885
					c1.193,1.252,2.433,2.478,3.659,3.64c-0.289,0.054-0.827,0.155-1.84,0.345c-2.174,0.407-12.75-2.523-17.988-3.179
					c-5.238-0.656-9.502,2.802-3.807,4.805c5.695,2.003,19.892-0.86,19.892-0.86l4.103-0.768c4.87,4.583,9.377,8.093,9.377,8.093
					l1.898-1.271c0,0-3.923-1.085-10.523-7.319c-0.087-0.478-0.192-1.545-0.062-3.725c0.419-6.996,6.19-14.897,1.755-21.67
					c-1.072-1.637-3.375-2.539-4.66-0.735c-0.922,1.294-0.863,3.484-0.573,4.969c0.966,4.946,2.542,9.336,2.171,14.493
					c-0.017,0.234,0.01,3.691,0.233,5.569c-0.893-0.884-1.829-1.857-2.806-2.93c-0.802-1.947-1.467-3.977-1.942-6.02
					c-1.266-5.448,0.015-11.228-0.912-16.779c-0.284-1.7-2.939-5.727-4.234-2.231c-0.577,1.558,0.156,4.497,0.261,6.142
					c0.297,4.671,0.761,9.552,2.596,13.911c-0.262-0.328-0.524-0.658-0.787-0.988c-0.45-1.205-2.442-6.737-3.684-13.369
					c-1.407-7.512-1.17-13.9-3.591-15.902c-2.421-2.002-2.287,6.362-0.028,15.147c1.255,4.88,3.398,8.771,5.055,11.267
					c-2.584-3.309-5.156-6.692-7.601-9.965c-1.104-1.78-3.807-6.626-4.148-11.917c-0.431-6.672-0.837-12.12-3.913-15.432
					c-3.076-3.312-3.224-0.829-0.792,6.696c1.67,5.166,3.671,12.102,5.977,16.775c-1.907-2.588-3.696-5.051-5.303-7.285
					c-1.072-2.306-3.676-8.273-4.482-13.438c-1.024-6.561-2.283-10.008-4.001-8.254c-1.19,1.215,0.946,9.177,4.188,15.654
					c-1.344-1.912-2.361-3.383-2.949-4.254c-0.267-0.395-0.569-0.816-0.897-1.252c-0.766-2.634-2.693-8.833-5.649-15.543
					C400.809,300.167,395.362,294.025,396.213,298.572z"/>
			</g>
			<g style="opacity:0.6;">
				<path style="fill:#FFFFFF;" d="M396.213,298.572c0.784,4.186,10.278,17.841,13.774,25.516c-0.811-1.052-1.743-2.176-2.678-3.262
					c-0.733-1.272-1.376-2.69-2.11-3.79c-1.128-1.688-2.322-3.334-3.604-4.909c-2.003-2.46-4.221-4.777-6.749-6.705
					c-2.998-2.288-6.339-3.915-10.116-4.209c-0.95-0.074-6.715-0.507-5.38,1.798c0.214,0.369,0.587,0.612,0.95,0.835
					c3.511,2.156,7.388,3.306,11.091,5.041c5.542,2.596,12.859,9.489,15.91,12.498c0.42,0.553,0.943,1.245,1.545,2.044
					c-5.446-5.08-14.349-7.971-17.395-6.573c-3.769,1.729,4.336,3.485,11.217,5.266c4.451,1.152,7.053,3.015,8.336,4.188
					c1.326,1.778,2.811,3.786,4.302,5.834c0.179,0.314,0.361,0.621,0.544,0.921c-1.079-1.213-2.316-2.429-3.563-3.283
					c-3.521-2.41-13.206-3.87-14.233-0.609c-1.026,3.261,5.856,1.768,11.761,2.708c4.045,0.644,6.976,3.032,8.422,4.473
					c0.131,0.146,0.262,0.285,0.394,0.42c0.668,0.946,1.31,1.868,1.912,2.747c1.409,2.058,2.742,3.991,4.049,5.865
					c-1.681-2.129-4.165-4.903-6.978-6.829c-5.163-3.535-12.057-4.29-14.566-2.388c-2.508,1.902,9.068,3.622,14.763,5.625
					c4.3,1.512,7.253,4.558,8.442,5.96c1.864,2.643,3.719,5.221,5.711,7.925c-2.598-2.441-6.35-5.118-10.155-7.611
					c-5.83-3.819-11.872-3.302-13.479-0.955c-1.607,2.347,3.323,2.447,12.49,4.414c6.572,1.41,10.99,4.8,12.965,6.607
					c0.845,1.132,1.716,2.291,2.63,3.496c1.039,1.37,2.242,2.77,3.519,4.15c-1.555-0.695-3.84-1.705-6.382-2.789
					c-2.841-1.211-5.591-2.513-8.212-4.14c-3.026-1.879-7.079-3.87-10.671-2.273c-1.216,0.541-1.722,1.562-1.177,2.779
					c0.336,0.749,1.049,1.25,1.764,1.645c3.968,2.192,8.931,2.766,13.304,3.743c5.396,1.205,10.017,1.702,12.172,1.885
					c1.193,1.252,2.433,2.478,3.659,3.64c-0.289,0.054-0.827,0.155-1.84,0.345c-2.174,0.407-12.75-2.523-17.988-3.179
					c-5.238-0.656-9.502,2.802-3.807,4.805c5.695,2.003,19.892-0.86,19.892-0.86l4.103-0.768c4.87,4.583,9.377,8.093,9.377,8.093
					l1.898-1.271c0,0-3.923-1.085-10.523-7.319c-0.087-0.478-0.192-1.545-0.062-3.725c0.419-6.996,6.19-14.897,1.755-21.67
					c-1.072-1.637-3.375-2.539-4.66-0.735c-0.922,1.294-0.863,3.484-0.573,4.969c0.966,4.946,2.542,9.336,2.171,14.493
					c-0.017,0.234,0.01,3.691,0.233,5.569c-0.893-0.884-1.829-1.857-2.806-2.93c-0.802-1.947-1.467-3.977-1.942-6.02
					c-1.266-5.448,0.015-11.228-0.912-16.779c-0.284-1.7-2.939-5.727-4.234-2.231c-0.577,1.558,0.156,4.497,0.261,6.142
					c0.297,4.671,0.761,9.552,2.596,13.911c-0.262-0.328-0.524-0.658-0.787-0.988c-0.45-1.205-2.442-6.737-3.684-13.369
					c-1.407-7.512-1.17-13.9-3.591-15.902c-2.421-2.002-2.287,6.362-0.028,15.147c1.255,4.88,3.398,8.771,5.055,11.267
					c-2.584-3.309-5.156-6.692-7.601-9.965c-1.104-1.78-3.807-6.626-4.148-11.917c-0.431-6.672-0.837-12.12-3.913-15.432
					c-3.076-3.312-3.224-0.829-0.792,6.696c1.67,5.166,3.671,12.102,5.977,16.775c-1.907-2.588-3.696-5.051-5.303-7.285
					c-1.072-2.306-3.676-8.273-4.482-13.438c-1.024-6.561-2.283-10.008-4.001-8.254c-1.19,1.215,0.946,9.177,4.188,15.654
					c-1.344-1.912-2.361-3.383-2.949-4.254c-0.267-0.395-0.569-0.816-0.897-1.252c-0.766-2.634-2.693-8.833-5.649-15.543
					C400.809,300.167,395.362,294.025,396.213,298.572z"/>
			</g>
		</g>
		<g>
			<g>
				<path style="fill:#C6FF00;" d="M467.09,279.075c-2.319,3.572-4.859,20.008-7.619,27.977c0.138-1.321,0.238-2.778,0.31-4.209
					c0.346-1.427,0.859-2.897,1.085-4.2c0.348-2,0.618-4.016,0.775-6.04c0.246-3.163,0.236-6.37-0.264-9.51
					c-0.594-3.724-1.892-7.207-4.424-10.024c-0.637-0.709-4.514-4.997-5.136-2.408c-0.099,0.415,0.003,0.848,0.112,1.26
					c1.056,3.983,3.071,7.488,4.556,11.298c2.223,5.701,2.77,15.739,2.904,20.022c-0.077,0.69-0.176,1.552-0.291,2.546
					c-0.441-7.434-4.895-15.667-8.065-16.755c-3.922-1.347,0.737,5.514,4.492,11.548c2.429,3.904,3.029,7.047,3.149,8.781
					c-0.265,2.202-0.574,4.681-0.907,7.191c-0.087,0.351-0.167,0.698-0.241,1.042c0.056-1.623-0.002-3.356-0.317-4.835
					c-0.888-4.173-6.896-11.91-9.888-10.255c-2.992,1.654,3.022,5.318,6.65,10.072c2.485,3.256,2.961,7.006,3.014,9.047
					c-0.006,0.196-0.007,0.388-0.004,0.576c-0.169,1.146-0.339,2.257-0.51,3.307c-0.399,2.462-0.767,4.781-1.112,7.04
					c0.251-2.701,0.365-6.423-0.345-9.758c-1.302-6.121-5.774-11.421-8.902-11.774c-3.128-0.352,4.069,8.876,6.813,14.254
					c2.071,4.06,2.11,8.302,2.004,10.138c-0.473,3.199-0.907,6.346-1.329,9.677c-0.198-3.56-1.069-8.085-2.107-12.515
					c-1.589-6.786-6.321-10.578-9.103-9.986c-2.782,0.592,0.719,4.064,6.002,11.809c3.787,5.553,4.649,11.054,4.834,13.725
					c-0.169,1.402-0.337,2.842-0.506,4.345c-0.193,1.708-0.286,3.552-0.313,5.432c-0.647-1.576-1.605-3.882-2.699-6.42
					c-1.223-2.836-2.316-5.675-3.092-8.661c-0.896-3.447-2.458-7.684-6.16-9.005c-1.253-0.447-2.324-0.056-2.769,1.201
					c-0.273,0.774-0.103,1.628,0.143,2.408c1.362,4.323,4.561,8.162,7.054,11.885c3.076,4.594,6.081,8.14,7.515,9.759
					c0.001,1.729,0.054,3.472,0.139,5.159c-0.247-0.16-0.706-0.458-1.57-1.019c-1.856-1.205-7.493-10.619-10.835-14.707
					c-3.341-4.087-8.814-4.523-6.07,0.855c2.743,5.378,14.999,13.094,14.999,13.094l3.502,2.273
					c0.366,6.677,1.21,12.327,1.21,12.327l2.251,0.389c0,0-2.093-3.491-2.574-12.557c0.266-0.406,0.926-1.251,2.524-2.74
					c5.128-4.777,14.755-6.52,16.214-14.484c0.353-1.925-0.693-4.167-2.868-3.746c-1.56,0.302-3.028,1.928-3.842,3.203
					c-2.711,4.248-4.597,8.515-8.422,11.993c-0.173,0.158-2.538,2.681-3.671,4.194c-0.037-1.255-0.044-2.606-0.012-4.057
					c0.762-1.963,1.68-3.892,2.745-5.698c2.84-4.819,7.753-8.121,10.91-12.781c0.966-1.427,1.82-6.174-1.528-4.536
					c-1.492,0.73-2.988,3.364-4.046,4.628c-3.006,3.587-6.036,7.443-7.713,11.865c0.036-0.418,0.074-0.838,0.111-1.258
					c0.505-1.183,2.877-6.563,6.551-12.223c4.161-6.41,8.737-10.873,8.364-13.993c-0.373-3.12-6.044,3.03-10.466,10.95
					c-2.456,4.4-3.587,8.695-4.109,11.646c0.411-4.178,0.881-8.402,1.367-12.458c0.428-2.051,1.812-7.423,5.213-11.491
					c4.289-5.129,7.751-9.355,7.808-13.874c0.056-4.519-1.764-2.824-5.191,4.303c-2.353,4.893-5.686,11.296-7.239,16.27
					c0.404-3.189,0.806-6.206,1.183-8.933c0.814-2.409,3.042-8.526,6.02-12.823c3.783-5.457,5.248-8.822,2.794-8.737
					c-1.7,0.059-5.643,7.299-7.762,14.225c0.345-2.312,0.624-4.078,0.798-5.114c0.079-0.47,0.15-0.983,0.214-1.525
					c1.261-2.436,4.141-8.254,6.626-15.152C469.318,283.399,469.608,275.195,467.09,279.075z"/>
			</g>
			<g style="opacity:0.6;">
				<path style="fill:#FFFFFF;" d="M467.09,279.075c-2.319,3.572-4.859,20.008-7.619,27.977c0.138-1.321,0.238-2.778,0.31-4.209
					c0.346-1.427,0.859-2.897,1.085-4.2c0.348-2,0.618-4.016,0.775-6.04c0.246-3.163,0.236-6.37-0.264-9.51
					c-0.594-3.724-1.892-7.207-4.424-10.024c-0.637-0.709-4.514-4.997-5.136-2.408c-0.099,0.415,0.003,0.848,0.112,1.26
					c1.056,3.983,3.071,7.488,4.556,11.298c2.223,5.701,2.77,15.739,2.904,20.022c-0.077,0.69-0.176,1.552-0.291,2.546
					c-0.441-7.434-4.895-15.667-8.065-16.755c-3.922-1.347,0.737,5.514,4.492,11.548c2.429,3.904,3.029,7.047,3.149,8.781
					c-0.265,2.202-0.574,4.681-0.907,7.191c-0.087,0.351-0.167,0.698-0.241,1.042c0.056-1.623-0.002-3.356-0.317-4.835
					c-0.888-4.173-6.896-11.91-9.888-10.255c-2.992,1.654,3.022,5.318,6.65,10.072c2.485,3.256,2.961,7.006,3.014,9.047
					c-0.006,0.196-0.007,0.388-0.004,0.576c-0.169,1.146-0.339,2.257-0.51,3.307c-0.399,2.462-0.767,4.781-1.112,7.04
					c0.251-2.701,0.365-6.423-0.345-9.758c-1.302-6.121-5.774-11.421-8.902-11.774c-3.128-0.352,4.069,8.876,6.813,14.254
					c2.071,4.06,2.11,8.302,2.004,10.138c-0.473,3.199-0.907,6.346-1.329,9.677c-0.198-3.56-1.069-8.085-2.107-12.515
					c-1.589-6.786-6.321-10.578-9.103-9.986c-2.782,0.592,0.719,4.064,6.002,11.809c3.787,5.553,4.649,11.054,4.834,13.725
					c-0.169,1.402-0.337,2.842-0.506,4.345c-0.193,1.708-0.286,3.552-0.313,5.432c-0.647-1.576-1.605-3.882-2.699-6.42
					c-1.223-2.836-2.316-5.675-3.092-8.661c-0.896-3.447-2.458-7.684-6.16-9.005c-1.253-0.447-2.324-0.056-2.769,1.201
					c-0.273,0.774-0.103,1.628,0.143,2.408c1.362,4.323,4.561,8.162,7.054,11.885c3.076,4.594,6.081,8.14,7.515,9.759
					c0.001,1.729,0.054,3.472,0.139,5.159c-0.247-0.16-0.706-0.458-1.57-1.019c-1.856-1.205-7.493-10.619-10.835-14.707
					c-3.341-4.087-8.814-4.523-6.07,0.855c2.743,5.378,14.999,13.094,14.999,13.094l3.502,2.273
					c0.366,6.677,1.21,12.327,1.21,12.327l2.251,0.389c0,0-2.093-3.491-2.574-12.557c0.266-0.406,0.926-1.251,2.524-2.74
					c5.128-4.777,14.755-6.52,16.214-14.484c0.353-1.925-0.693-4.167-2.868-3.746c-1.56,0.302-3.028,1.928-3.842,3.203
					c-2.711,4.248-4.597,8.515-8.422,11.993c-0.173,0.158-2.538,2.681-3.671,4.194c-0.037-1.255-0.044-2.606-0.012-4.057
					c0.762-1.963,1.68-3.892,2.745-5.698c2.84-4.819,7.753-8.121,10.91-12.781c0.966-1.427,1.82-6.174-1.528-4.536
					c-1.492,0.73-2.988,3.364-4.046,4.628c-3.006,3.587-6.036,7.443-7.713,11.865c0.036-0.418,0.074-0.838,0.111-1.258
					c0.505-1.183,2.877-6.563,6.551-12.223c4.161-6.41,8.737-10.873,8.364-13.993c-0.373-3.12-6.044,3.03-10.466,10.95
					c-2.456,4.4-3.587,8.695-4.109,11.646c0.411-4.178,0.881-8.402,1.367-12.458c0.428-2.051,1.812-7.423,5.213-11.491
					c4.289-5.129,7.751-9.355,7.808-13.874c0.056-4.519-1.764-2.824-5.191,4.303c-2.353,4.893-5.686,11.296-7.239,16.27
					c0.404-3.189,0.806-6.206,1.183-8.933c0.814-2.409,3.042-8.526,6.02-12.823c3.783-5.457,5.248-8.822,2.794-8.737
					c-1.7,0.059-5.643,7.299-7.762,14.225c0.345-2.312,0.624-4.078,0.798-5.114c0.079-0.47,0.15-0.983,0.214-1.525
					c1.261-2.436,4.141-8.254,6.626-15.152C469.318,283.399,469.608,275.195,467.09,279.075z"/>
			</g>
		</g>
		<g>
			<path style="fill:#C6FF00;" d="M40.582,314.949c0.464,3.146,7.154,13.607,9.541,19.434c-0.575-0.808-1.238-1.673-1.904-2.511
				c-0.51-0.97-0.949-2.047-1.465-2.888c-0.793-1.292-1.636-2.554-2.548-3.766c-1.424-1.893-3.012-3.686-4.842-5.197
				c-2.171-1.794-4.617-3.104-7.426-3.432c-0.707-0.083-4.995-0.572-4.066,1.186c0.149,0.282,0.42,0.474,0.685,0.651
				c2.558,1.71,5.416,2.679,8.13,4.081c4.06,2.096,9.321,7.45,11.51,9.784c0.297,0.425,0.668,0.956,1.094,1.57
				c-3.916-3.947-10.475-6.361-12.788-5.406c-2.862,1.181,3.134,2.725,8.217,4.252c3.288,0.988,5.175,2.453,6.099,3.365
				c0.938,1.365,1.988,2.906,3.042,4.476c0.125,0.24,0.251,0.474,0.379,0.703c-0.77-0.936-1.658-1.879-2.564-2.552
				c-2.557-1.9-9.742-3.268-10.601-0.865c-0.86,2.404,4.318,1.488,8.697,2.36c2.999,0.597,5.117,2.463,6.154,3.58
				c0.094,0.113,0.188,0.22,0.282,0.324c0.471,0.725,0.924,1.432,1.347,2.104c0.992,1.576,1.93,3.057,2.852,4.493
				c-1.193-1.637-2.966-3.779-5.01-5.296c-3.75-2.786-8.872-3.548-10.799-2.202c-1.926,1.347,6.661,2.964,10.852,4.622
				c3.164,1.252,5.28,3.61,6.127,4.69c1.314,2.026,2.624,4.003,4.032,6.077c-1.868-1.896-4.59-4.002-7.357-5.971
				c-4.24-3.017-8.762-2.806-10.029-1.101c-1.266,1.705,2.409,1.922,9.191,3.653c4.862,1.241,8.061,3.898,9.482,5.303
				c0.598,0.869,1.214,1.758,1.861,2.684c0.736,1.052,1.593,2.131,2.506,3.198c-1.14-0.564-2.815-1.383-4.681-2.265
				c-2.085-0.985-4.099-2.036-6.008-3.326c-2.204-1.489-5.17-3.092-7.896-2.004c-0.923,0.368-1.33,1.116-0.958,2.04
				c0.229,0.569,0.746,0.963,1.269,1.278c2.897,1.75,6.584,2.321,9.818,3.176c3.991,1.055,7.425,1.559,9.027,1.758
				c0.854,0.968,1.744,1.918,2.625,2.822c-0.217,0.032-0.621,0.092-1.383,0.204c-1.634,0.241-9.44-2.25-13.329-2.891
				c-3.889-0.641-7.17,1.817-2.979,3.475c4.191,1.659,14.866-0.068,14.866-0.068l3.084-0.455c3.501,3.56,6.763,6.309,6.763,6.309
				l1.453-0.894c0,0-2.896-0.922-7.64-5.764c-0.051-0.359-0.099-1.158,0.062-2.781c0.515-5.207,5.048-10.936,1.934-16.117
				c-0.753-1.252-2.445-1.992-3.456-0.683c-0.725,0.939-0.745,2.574-0.571,3.69c0.578,3.718,1.628,7.039,1.202,10.875
				c-0.019,0.174-0.099,2.755,0.014,4.162c-0.641-0.685-1.311-1.438-2.009-2.267c-0.542-1.476-0.979-3.009-1.275-4.547
				c-0.788-4.102,0.335-8.376-0.197-12.545c-0.163-1.276-2.028-4.357-3.095-1.787c-0.475,1.146-0.013,3.359,0.018,4.59
				c0.087,3.493,0.292,7.149,1.536,10.454c-0.186-0.252-0.372-0.506-0.559-0.76c-0.301-0.912-1.628-5.097-2.363-10.081
				c-0.833-5.645-0.472-10.404-2.221-11.968c-1.749-1.564-1.89,4.681-0.458,11.3c0.795,3.677,2.282,6.642,3.447,8.552
				c-1.832-2.543-3.654-5.142-5.383-7.654c-0.773-1.36-2.649-5.053-2.751-9.01c-0.129-4.99-0.275-9.067-2.474-11.627
				c-2.199-2.56-2.382-0.711-0.784,4.973c1.097,3.902,2.39,9.135,3.976,12.688c-1.348-1.986-2.612-3.875-3.747-5.588
				c-0.733-1.751-2.504-6.278-2.957-10.155c-0.575-4.924-1.415-7.533-2.747-6.274c-0.923,0.873,0.442,6.874,2.673,11.8
				c-0.948-1.465-1.664-2.592-2.077-3.259c-0.188-0.303-0.401-0.625-0.633-0.96c-0.496-1.987-1.755-6.668-3.767-11.759
				C43.965,316.271,40.078,311.532,40.582,314.949z"/>
			<path style="opacity:0.6;fill:#FFFFFF;" d="M40.582,314.949c0.464,3.146,7.154,13.607,9.541,19.434
				c-0.575-0.808-1.238-1.673-1.904-2.511c-0.51-0.97-0.949-2.047-1.465-2.888c-0.793-1.292-1.636-2.554-2.548-3.766
				c-1.424-1.893-3.012-3.686-4.842-5.197c-2.171-1.794-4.617-3.104-7.426-3.432c-0.707-0.083-4.995-0.572-4.066,1.186
				c0.149,0.282,0.42,0.474,0.685,0.651c2.558,1.71,5.416,2.679,8.13,4.081c4.06,2.096,9.321,7.45,11.51,9.784
				c0.297,0.425,0.668,0.956,1.094,1.57c-3.916-3.947-10.475-6.361-12.788-5.406c-2.862,1.181,3.134,2.725,8.217,4.252
				c3.288,0.988,5.175,2.453,6.099,3.365c0.938,1.365,1.988,2.906,3.042,4.476c0.125,0.24,0.251,0.474,0.379,0.703
				c-0.77-0.936-1.658-1.879-2.564-2.552c-2.557-1.9-9.742-3.268-10.601-0.865c-0.86,2.404,4.318,1.488,8.697,2.36
				c2.999,0.597,5.117,2.463,6.154,3.58c0.094,0.113,0.188,0.22,0.282,0.324c0.471,0.725,0.924,1.432,1.347,2.104
				c0.992,1.576,1.93,3.057,2.852,4.493c-1.193-1.637-2.966-3.779-5.01-5.296c-3.75-2.786-8.872-3.548-10.799-2.202
				c-1.926,1.347,6.661,2.964,10.852,4.622c3.164,1.252,5.28,3.61,6.127,4.69c1.314,2.026,2.624,4.003,4.032,6.077
				c-1.868-1.896-4.59-4.002-7.357-5.971c-4.24-3.017-8.762-2.806-10.029-1.101c-1.266,1.705,2.409,1.922,9.191,3.653
				c4.862,1.241,8.061,3.898,9.482,5.303c0.598,0.869,1.214,1.758,1.861,2.684c0.736,1.052,1.593,2.131,2.506,3.198
				c-1.14-0.564-2.815-1.383-4.681-2.265c-2.085-0.985-4.099-2.036-6.008-3.326c-2.204-1.489-5.17-3.092-7.896-2.004
				c-0.923,0.368-1.33,1.116-0.958,2.04c0.229,0.569,0.746,0.963,1.269,1.278c2.897,1.75,6.584,2.321,9.818,3.176
				c3.991,1.055,7.425,1.559,9.027,1.758c0.854,0.968,1.744,1.918,2.625,2.822c-0.217,0.032-0.621,0.092-1.383,0.204
				c-1.634,0.241-9.44-2.25-13.329-2.891c-3.889-0.641-7.17,1.817-2.979,3.475c4.191,1.659,14.866-0.068,14.866-0.068l3.084-0.455
				c3.501,3.56,6.763,6.309,6.763,6.309l1.453-0.894c0,0-2.896-0.922-7.64-5.764c-0.051-0.359-0.099-1.158,0.062-2.781
				c0.515-5.207,5.048-10.936,1.934-16.117c-0.753-1.252-2.445-1.992-3.456-0.683c-0.725,0.939-0.745,2.574-0.571,3.69
				c0.578,3.718,1.628,7.039,1.202,10.875c-0.019,0.174-0.099,2.755,0.014,4.162c-0.641-0.685-1.311-1.438-2.009-2.267
				c-0.542-1.476-0.979-3.009-1.275-4.547c-0.788-4.102,0.335-8.376-0.197-12.545c-0.163-1.276-2.028-4.357-3.095-1.787
				c-0.475,1.146-0.013,3.359,0.018,4.59c0.087,3.493,0.292,7.149,1.536,10.454c-0.186-0.252-0.372-0.506-0.559-0.76
				c-0.301-0.912-1.628-5.097-2.363-10.081c-0.833-5.645-0.472-10.404-2.221-11.968c-1.749-1.564-1.89,4.681-0.458,11.3
				c0.795,3.677,2.282,6.642,3.447,8.552c-1.832-2.543-3.654-5.142-5.383-7.654c-0.773-1.36-2.649-5.053-2.751-9.01
				c-0.129-4.99-0.275-9.067-2.474-11.627c-2.199-2.56-2.382-0.711-0.784,4.973c1.097,3.902,2.39,9.135,3.976,12.688
				c-1.348-1.986-2.612-3.875-3.747-5.588c-0.733-1.751-2.504-6.278-2.957-10.155c-0.575-4.924-1.415-7.533-2.747-6.274
				c-0.923,0.873,0.442,6.874,2.673,11.8c-0.948-1.465-1.664-2.592-2.077-3.259c-0.188-0.303-0.401-0.625-0.633-0.96
				c-0.496-1.987-1.755-6.668-3.767-11.759C43.965,316.271,40.078,311.532,40.582,314.949z"/>
		</g>
		<g>
			<path style="fill:#C6FF00;" d="M113.015,312.516c-2.674,1.721-9.443,12.131-13.766,16.71c0.499-0.857,1.014-1.818,1.502-2.771
				c0.673-0.865,1.473-1.709,2.026-2.526c0.85-1.255,1.652-2.544,2.38-3.874c1.137-2.078,2.114-4.264,2.736-6.555
				c0.738-2.717,0.922-5.486,0.062-8.18c-0.216-0.678-1.54-4.786-2.758-3.214c-0.195,0.252-0.258,0.579-0.31,0.893
				c-0.502,3.035-0.206,6.039-0.362,9.089c-0.235,4.563-2.94,11.564-4.163,14.521c-0.265,0.446-0.596,1.003-0.979,1.644
				c1.979-5.196,1.471-12.167-0.353-13.88c-2.257-2.119-1.189,3.979-0.483,9.239c0.457,3.403-0.099,5.726-0.548,6.944
				c-0.856,1.418-1.826,3.01-2.822,4.618c-0.167,0.212-0.328,0.424-0.484,0.636c0.535-1.088,1.027-2.285,1.267-3.388
				c0.675-3.113-1.043-10.222-3.587-10.013c-2.544,0.209,0.426,4.547,1.439,8.896c0.694,2.978-0.132,5.678-0.722,7.083
				c-0.064,0.132-0.123,0.262-0.179,0.391c-0.466,0.728-0.923,1.432-1.361,2.095c-1.027,1.554-1.988,3.02-2.916,4.451
				c0.999-1.762,2.218-4.261,2.757-6.749c0.99-4.566-0.429-9.546-2.45-10.745c-2.022-1.199,0.049,7.29,0.267,11.792
				c0.165,3.399-1.109,6.299-1.744,7.516c-1.303,2.033-2.563,4.042-3.872,6.181c0.957-2.484,1.751-5.832,2.403-9.166
				c0.999-5.107-1.06-9.139-3.135-9.589c-2.076-0.45-0.757,2.987,0.465,9.88c0.876,4.941-0.225,8.951-0.918,10.825
				c-0.545,0.903-1.101,1.831-1.677,2.803c-0.655,1.104-1.284,2.33-1.879,3.602c0.043-1.271,0.098-3.135,0.131-5.199
				c0.037-2.306,0.164-4.574,0.551-6.845c0.447-2.622,0.683-5.985-1.433-8.019c-0.716-0.688-1.565-0.751-2.253-0.031
				c-0.423,0.443-0.569,1.077-0.641,1.683c-0.398,3.361,0.602,6.955,1.158,10.254c0.686,4.07,1.644,7.406,2.124,8.948
				c-0.53,1.177-1.028,2.38-1.487,3.555c-0.119-0.185-0.34-0.528-0.756-1.175c-0.894-1.389-1.845-9.527-2.867-13.334
				c-1.021-3.807-4.614-5.781-4.395-1.279c0.219,4.502,6.196,13.513,6.196,13.513l1.687,2.621c-1.798,4.658-2.956,8.763-2.956,8.763
				l1.413,0.955c0,0-0.355-3.018,2.098-9.337c0.306-0.195,1.014-0.568,2.558-1.091c4.956-1.68,12.045,0.086,15.48-4.889
				c0.83-1.202,0.806-3.049-0.804-3.429c-1.155-0.273-2.652,0.384-3.597,1.003c-3.148,2.061-5.74,4.387-9.411,5.582
				c-0.166,0.054-2.55,1.047-3.785,1.73c0.36-0.866,0.769-1.788,1.236-2.766c1.121-1.103,2.337-2.134,3.616-3.038
				c3.411-2.41,7.768-3.151,11.346-5.356c1.095-0.675,3.132-3.645,0.35-3.556c-1.24,0.039-3.066,1.374-4.174,1.91
				c-3.146,1.521-6.391,3.216-8.889,5.713c0.153-0.274,0.307-0.548,0.462-0.823c0.707-0.65,3.971-3.586,8.208-6.312
				c4.799-3.088,9.282-4.723,9.985-6.961c0.703-2.238-5.044,0.21-10.482,4.246c-3.021,2.242-5.108,4.819-6.368,6.668
				c1.561-2.718,3.176-5.45,4.751-8.062c0.92-1.265,3.51-4.498,7.072-6.224c4.492-2.177,8.146-3.992,9.57-7.051
				c1.424-3.059-0.335-2.463-4.854,1.338c-3.102,2.609-7.335,5.946-9.917,8.857c1.253-2.047,2.452-3.978,3.545-5.719
				c1.293-1.391,4.686-4.872,8.03-6.883c4.248-2.556,6.278-4.397,4.581-5.091c-1.176-0.481-6.08,3.239-9.646,7.304
				c0.944-1.468,1.675-2.585,2.111-3.237c0.198-0.296,0.404-0.623,0.613-0.973c1.606-1.272,5.35-4.35,9.157-8.283
				C113.206,316.143,115.919,310.647,113.015,312.516z"/>
			<path style="opacity:0.6;fill:#FFFFFF;" d="M113.015,312.516c-2.674,1.721-9.443,12.131-13.766,16.71
				c0.499-0.857,1.014-1.818,1.502-2.771c0.673-0.865,1.473-1.709,2.026-2.526c0.85-1.255,1.652-2.544,2.38-3.874
				c1.137-2.078,2.114-4.264,2.736-6.555c0.738-2.717,0.922-5.486,0.062-8.18c-0.216-0.678-1.54-4.786-2.758-3.214
				c-0.195,0.252-0.258,0.579-0.31,0.893c-0.502,3.035-0.206,6.039-0.362,9.089c-0.235,4.563-2.94,11.564-4.163,14.521
				c-0.265,0.446-0.596,1.003-0.979,1.644c1.979-5.196,1.471-12.167-0.353-13.88c-2.257-2.119-1.189,3.979-0.483,9.239
				c0.457,3.403-0.099,5.726-0.548,6.944c-0.856,1.418-1.826,3.01-2.822,4.618c-0.167,0.212-0.328,0.424-0.484,0.636
				c0.535-1.088,1.027-2.285,1.267-3.388c0.675-3.113-1.043-10.222-3.587-10.013c-2.544,0.209,0.426,4.547,1.439,8.896
				c0.694,2.978-0.132,5.678-0.722,7.083c-0.064,0.132-0.123,0.262-0.179,0.391c-0.466,0.728-0.923,1.432-1.361,2.095
				c-1.027,1.554-1.988,3.02-2.916,4.451c0.999-1.762,2.218-4.261,2.757-6.749c0.99-4.566-0.429-9.546-2.45-10.745
				c-2.022-1.199,0.049,7.29,0.267,11.792c0.165,3.399-1.109,6.299-1.744,7.516c-1.303,2.033-2.563,4.042-3.872,6.181
				c0.957-2.484,1.751-5.832,2.403-9.166c0.999-5.107-1.06-9.139-3.135-9.589c-2.076-0.45-0.757,2.987,0.465,9.88
				c0.876,4.941-0.225,8.951-0.918,10.825c-0.545,0.903-1.101,1.831-1.677,2.803c-0.655,1.104-1.284,2.33-1.879,3.602
				c0.043-1.271,0.098-3.135,0.131-5.199c0.037-2.306,0.164-4.574,0.551-6.845c0.447-2.622,0.683-5.985-1.433-8.019
				c-0.716-0.688-1.565-0.751-2.253-0.031c-0.423,0.443-0.569,1.077-0.641,1.683c-0.398,3.361,0.602,6.955,1.158,10.254
				c0.686,4.07,1.644,7.406,2.124,8.948c-0.53,1.177-1.028,2.38-1.487,3.555c-0.119-0.185-0.34-0.528-0.756-1.175
				c-0.894-1.389-1.845-9.527-2.867-13.334c-1.021-3.807-4.614-5.781-4.395-1.279c0.219,4.502,6.196,13.513,6.196,13.513
				l1.687,2.621c-1.798,4.658-2.956,8.763-2.956,8.763l1.413,0.955c0,0-0.355-3.018,2.098-9.337
				c0.306-0.195,1.014-0.568,2.558-1.091c4.956-1.68,12.045,0.086,15.48-4.889c0.83-1.202,0.806-3.049-0.804-3.429
				c-1.155-0.273-2.652,0.384-3.597,1.003c-3.148,2.061-5.74,4.387-9.411,5.582c-0.166,0.054-2.55,1.047-3.785,1.73
				c0.36-0.866,0.769-1.788,1.236-2.766c1.121-1.103,2.337-2.134,3.616-3.038c3.411-2.41,7.768-3.151,11.346-5.356
				c1.095-0.675,3.132-3.645,0.35-3.556c-1.24,0.039-3.066,1.374-4.174,1.91c-3.146,1.521-6.391,3.216-8.889,5.713
				c0.153-0.274,0.307-0.548,0.462-0.823c0.707-0.65,3.971-3.586,8.208-6.312c4.799-3.088,9.282-4.723,9.985-6.961
				c0.703-2.238-5.044,0.21-10.482,4.246c-3.021,2.242-5.108,4.819-6.368,6.668c1.561-2.718,3.176-5.45,4.751-8.062
				c0.92-1.265,3.51-4.498,7.072-6.224c4.492-2.177,8.146-3.992,9.57-7.051c1.424-3.059-0.335-2.463-4.854,1.338
				c-3.102,2.609-7.335,5.946-9.917,8.857c1.253-2.047,2.452-3.978,3.545-5.719c1.293-1.391,4.686-4.872,8.03-6.883
				c4.248-2.556,6.278-4.397,4.581-5.091c-1.176-0.481-6.08,3.239-9.646,7.304c0.944-1.468,1.675-2.585,2.111-3.237
				c0.198-0.296,0.404-0.623,0.613-0.973c1.606-1.272,5.35-4.35,9.157-8.283C113.206,316.143,115.919,310.647,113.015,312.516z"/>
		</g>
		<g>
			<path style="fill:#C6FF00;" d="M142.315,312.794c-2.674,1.721-9.443,12.131-13.766,16.71c0.499-0.857,1.014-1.818,1.502-2.771
				c0.673-0.865,1.473-1.709,2.026-2.526c0.85-1.255,1.652-2.544,2.38-3.875c1.137-2.078,2.114-4.264,2.736-6.555
				c0.738-2.717,0.922-5.486,0.062-8.18c-0.216-0.678-1.541-4.786-2.758-3.214c-0.195,0.252-0.258,0.578-0.31,0.893
				c-0.502,3.035-0.206,6.039-0.363,9.089c-0.235,4.563-2.94,11.564-4.162,14.521c-0.265,0.446-0.595,1.003-0.979,1.644
				c1.979-5.196,1.472-12.167-0.353-13.88c-2.257-2.119-1.189,3.979-0.483,9.239c0.457,3.403-0.099,5.726-0.548,6.944
				c-0.856,1.418-1.826,3.01-2.823,4.618c-0.167,0.212-0.328,0.424-0.484,0.636c0.535-1.088,1.027-2.285,1.267-3.388
				c0.675-3.113-1.043-10.222-3.587-10.014c-2.544,0.209,0.426,4.547,1.439,8.896c0.693,2.979-0.132,5.678-0.722,7.083
				c-0.064,0.132-0.123,0.262-0.179,0.391c-0.466,0.728-0.923,1.432-1.361,2.095c-1.027,1.554-1.988,3.02-2.916,4.451
				c0.999-1.762,2.218-4.261,2.757-6.749c0.99-4.566-0.429-9.546-2.45-10.745c-2.022-1.199,0.049,7.29,0.267,11.793
				c0.165,3.399-1.109,6.299-1.744,7.516c-1.303,2.033-2.563,4.042-3.872,6.181c0.957-2.484,1.751-5.832,2.403-9.166
				c0.999-5.107-1.06-9.139-3.135-9.59c-2.075-0.45-0.756,2.987,0.465,9.88c0.876,4.941-0.225,8.951-0.918,10.826
				c-0.545,0.903-1.101,1.831-1.677,2.803c-0.655,1.104-1.284,2.33-1.879,3.602c0.043-1.271,0.098-3.135,0.131-5.198
				c0.037-2.306,0.164-4.574,0.551-6.845c0.447-2.622,0.683-5.985-1.433-8.019c-0.716-0.688-1.565-0.751-2.253-0.031
				c-0.424,0.443-0.569,1.077-0.641,1.683c-0.398,3.361,0.602,6.955,1.158,10.254c0.686,4.07,1.644,7.406,2.124,8.948
				c-0.53,1.177-1.028,2.38-1.487,3.555c-0.119-0.185-0.34-0.528-0.756-1.175c-0.894-1.389-1.845-9.527-2.867-13.334
				c-1.021-3.807-4.613-5.781-4.395-1.279c0.219,4.502,6.196,13.513,6.196,13.513l1.687,2.621c-1.798,4.658-2.956,8.763-2.956,8.763
				l1.413,0.955c0,0-0.355-3.018,2.098-9.338c0.306-0.195,1.014-0.568,2.558-1.091c4.956-1.68,12.045,0.086,15.48-4.889
				c0.83-1.202,0.806-3.049-0.804-3.43c-1.155-0.273-2.652,0.384-3.597,1.003c-3.148,2.061-5.74,4.387-9.411,5.582
				c-0.166,0.054-2.55,1.047-3.785,1.73c0.359-0.866,0.769-1.788,1.236-2.766c1.121-1.103,2.337-2.134,3.616-3.038
				c3.411-2.41,7.768-3.151,11.346-5.356c1.096-0.675,3.132-3.645,0.35-3.557c-1.24,0.04-3.066,1.374-4.174,1.91
				c-3.146,1.521-6.391,3.216-8.889,5.713c0.153-0.273,0.307-0.548,0.462-0.823c0.707-0.65,3.971-3.586,8.208-6.312
				c4.799-3.088,9.282-4.723,9.985-6.961c0.703-2.238-5.044,0.21-10.482,4.246c-3.021,2.242-5.108,4.819-6.368,6.669
				c1.561-2.719,3.176-5.45,4.751-8.062c0.92-1.265,3.51-4.498,7.072-6.224c4.492-2.177,8.146-3.992,9.57-7.051
				c1.424-3.059-0.335-2.463-4.854,1.338c-3.102,2.609-7.335,5.946-9.917,8.857c1.253-2.047,2.452-3.978,3.545-5.719
				c1.293-1.391,4.685-4.872,8.03-6.883c4.248-2.556,6.278-4.397,4.581-5.091c-1.176-0.481-6.08,3.239-9.646,7.304
				c0.944-1.468,1.675-2.585,2.112-3.237c0.198-0.296,0.404-0.623,0.613-0.973c1.606-1.272,5.35-4.35,9.157-8.283
				C142.507,316.422,145.22,310.925,142.315,312.794z"/>
			<path style="opacity:0.6;fill:#FFFFFF;" d="M142.315,312.794c-2.674,1.721-9.443,12.131-13.766,16.71
				c0.499-0.857,1.014-1.818,1.502-2.771c0.673-0.865,1.473-1.709,2.026-2.526c0.85-1.255,1.652-2.544,2.38-3.875
				c1.137-2.078,2.114-4.264,2.736-6.555c0.738-2.717,0.922-5.486,0.062-8.18c-0.216-0.678-1.541-4.786-2.758-3.214
				c-0.195,0.252-0.258,0.578-0.31,0.893c-0.502,3.035-0.206,6.039-0.363,9.089c-0.235,4.563-2.94,11.564-4.162,14.521
				c-0.265,0.446-0.595,1.003-0.979,1.644c1.979-5.196,1.472-12.167-0.353-13.88c-2.257-2.119-1.189,3.979-0.483,9.239
				c0.457,3.403-0.099,5.726-0.548,6.944c-0.856,1.418-1.826,3.01-2.823,4.618c-0.167,0.212-0.328,0.424-0.484,0.636
				c0.535-1.088,1.027-2.285,1.267-3.388c0.675-3.113-1.043-10.222-3.587-10.014c-2.544,0.209,0.426,4.547,1.439,8.896
				c0.693,2.979-0.132,5.678-0.722,7.083c-0.064,0.132-0.123,0.262-0.179,0.391c-0.466,0.728-0.923,1.432-1.361,2.095
				c-1.027,1.554-1.988,3.02-2.916,4.451c0.999-1.762,2.218-4.261,2.757-6.749c0.99-4.566-0.429-9.546-2.45-10.745
				c-2.022-1.199,0.049,7.29,0.267,11.793c0.165,3.399-1.109,6.299-1.744,7.516c-1.303,2.033-2.563,4.042-3.872,6.181
				c0.957-2.484,1.751-5.832,2.403-9.166c0.999-5.107-1.06-9.139-3.135-9.59c-2.075-0.45-0.756,2.987,0.465,9.88
				c0.876,4.941-0.225,8.951-0.918,10.826c-0.545,0.903-1.101,1.831-1.677,2.803c-0.655,1.104-1.284,2.33-1.879,3.602
				c0.043-1.271,0.098-3.135,0.131-5.198c0.037-2.306,0.164-4.574,0.551-6.845c0.447-2.622,0.683-5.985-1.433-8.019
				c-0.716-0.688-1.565-0.751-2.253-0.031c-0.424,0.443-0.569,1.077-0.641,1.683c-0.398,3.361,0.602,6.955,1.158,10.254
				c0.686,4.07,1.644,7.406,2.124,8.948c-0.53,1.177-1.028,2.38-1.487,3.555c-0.119-0.185-0.34-0.528-0.756-1.175
				c-0.894-1.389-1.845-9.527-2.867-13.334c-1.021-3.807-4.613-5.781-4.395-1.279c0.219,4.502,6.196,13.513,6.196,13.513
				l1.687,2.621c-1.798,4.658-2.956,8.763-2.956,8.763l1.413,0.955c0,0-0.355-3.018,2.098-9.338
				c0.306-0.195,1.014-0.568,2.558-1.091c4.956-1.68,12.045,0.086,15.48-4.889c0.83-1.202,0.806-3.049-0.804-3.43
				c-1.155-0.273-2.652,0.384-3.597,1.003c-3.148,2.061-5.74,4.387-9.411,5.582c-0.166,0.054-2.55,1.047-3.785,1.73
				c0.359-0.866,0.769-1.788,1.236-2.766c1.121-1.103,2.337-2.134,3.616-3.038c3.411-2.41,7.768-3.151,11.346-5.356
				c1.096-0.675,3.132-3.645,0.35-3.557c-1.24,0.04-3.066,1.374-4.174,1.91c-3.146,1.521-6.391,3.216-8.889,5.713
				c0.153-0.273,0.307-0.548,0.462-0.823c0.707-0.65,3.971-3.586,8.208-6.312c4.799-3.088,9.282-4.723,9.985-6.961
				c0.703-2.238-5.044,0.21-10.482,4.246c-3.021,2.242-5.108,4.819-6.368,6.669c1.561-2.719,3.176-5.45,4.751-8.062
				c0.92-1.265,3.51-4.498,7.072-6.224c4.492-2.177,8.146-3.992,9.57-7.051c1.424-3.059-0.335-2.463-4.854,1.338
				c-3.102,2.609-7.335,5.946-9.917,8.857c1.253-2.047,2.452-3.978,3.545-5.719c1.293-1.391,4.685-4.872,8.03-6.883
				c4.248-2.556,6.278-4.397,4.581-5.091c-1.176-0.481-6.08,3.239-9.646,7.304c0.944-1.468,1.675-2.585,2.112-3.237
				c0.198-0.296,0.404-0.623,0.613-0.973c1.606-1.272,5.35-4.35,9.157-8.283C142.507,316.422,145.22,310.925,142.315,312.794z"/>
		</g>
	</g>
</g>
<g id="Clouds">
	<g>
		<g>
			<path style="fill:#C6FF00;" d="M453.455,123.395c0,0-3.832-11.018-14.851-11.497c-11.018-0.479-9.102,10.06-16.767,12.935
				c-7.665,2.874-10.539-5.27-17.246-3.353c-6.707,1.916-2.395,7.186-8.144,9.102c-5.749,1.916-5.27-3.353-13.893,0.958
				c-8.623,4.312-10.539,5.749-12.455,6.228c-1.916,0.479-19.162,3.353-19.162,3.353h119.284c0,0,3.353-10.539-3.353-14.851
				C460.162,121.958,460.641,127.227,453.455,123.395z"/>
			<path style="opacity:0.7;fill:#FFFFFF;" d="M453.455,123.395c0,0-3.832-11.018-14.851-11.497
				c-11.018-0.479-9.102,10.06-16.767,12.935c-7.665,2.874-10.539-5.27-17.246-3.353c-6.707,1.916-2.395,7.186-8.144,9.102
				c-5.749,1.916-5.27-3.353-13.893,0.958c-8.623,4.312-10.539,5.749-12.455,6.228c-1.916,0.479-19.162,3.353-19.162,3.353h119.284
				c0,0,3.353-10.539-3.353-14.851C460.162,121.958,460.641,127.227,453.455,123.395z"/>
		</g>
		<g>
			<path style="fill:#C6FF00;" d="M234.266,105.586c0,0-2.323-6.68-9.003-6.97c-6.68-0.29-5.518,6.099-10.165,7.841
				c-4.646,1.743-6.389-3.195-10.455-2.033c-4.066,1.162-1.452,4.356-4.937,5.518c-3.485,1.162-3.195-2.033-8.422,0.581
				c-5.227,2.614-6.389,3.485-7.551,3.776c-1.162,0.29-11.617,2.033-11.617,2.033h72.313c0,0,2.033-6.389-2.033-9.003
				C238.332,104.715,238.622,107.909,234.266,105.586z"/>
			<path style="opacity:0.8;fill:#FFFFFF;" d="M234.266,105.586c0,0-2.323-6.68-9.003-6.97c-6.68-0.29-5.518,6.099-10.165,7.841
				c-4.646,1.743-6.389-3.195-10.455-2.033c-4.066,1.162-1.452,4.356-4.937,5.518c-3.485,1.162-3.195-2.033-8.422,0.581
				c-5.227,2.614-6.389,3.485-7.551,3.776c-1.162,0.29-11.617,2.033-11.617,2.033h72.313c0,0,2.033-6.389-2.033-9.003
				C238.332,104.715,238.622,107.909,234.266,105.586z"/>
		</g>
		<g>
			<g>
				<path style="fill:#C6FF00;" d="M112.628,223.023c0,0-3.129-8.995-12.123-9.386c-8.994-0.391-7.43,8.212-13.687,10.559
					c-6.257,2.346-8.604-4.302-14.078-2.738s-1.955,5.866-6.648,7.43c-4.693,1.564-4.302-2.738-11.341,0.782
					c-7.039,3.52-8.604,4.693-10.168,5.084c-1.564,0.391-15.643,2.737-15.643,2.737h97.376c0,0,2.738-8.603-2.737-12.123
					C118.103,221.85,118.494,226.152,112.628,223.023z"/>
			</g>
			<g style="opacity:0.7;">
				<path style="fill:#FFFFFF;" d="M112.628,223.023c0,0-3.129-8.995-12.123-9.386c-8.994-0.391-7.43,8.212-13.687,10.559
					c-6.257,2.346-8.604-4.302-14.078-2.738s-1.955,5.866-6.648,7.43c-4.693,1.564-4.302-2.738-11.341,0.782
					c-7.039,3.52-8.604,4.693-10.168,5.084c-1.564,0.391-15.643,2.737-15.643,2.737h97.376c0,0,2.738-8.603-2.737-12.123
					C118.103,221.85,118.494,226.152,112.628,223.023z"/>
			</g>
		</g>
	</g>
</g>
<g id="Shadow">
	<g>
		<g>
			<ellipse style="fill:#C6FF00;" cx="228.303" cy="393.984" rx="106.056" ry="7.516"/>
			<ellipse style="fill:#C6FF00;" cx="327.678" cy="385.216" rx="60.126" ry="3.758"/>
		</g>
		<g style="opacity:0.6;">
			<ellipse style="fill:#FFFFFF;" cx="228.303" cy="393.984" rx="106.056" ry="7.516"/>
			<ellipse style="fill:#FFFFFF;" cx="327.678" cy="385.216" rx="60.126" ry="3.758"/>
		</g>
	</g>
</g>
<g id="Character">
	<g>
		
			<line style="fill:none;stroke:#263238;stroke-width:0.8351;stroke-linecap:round;stroke-linejoin:round;stroke-miterlimit:10;" x1="227.526" y1="281.85" x2="246.176" y2="268.489"/>
		<g>
			<g>
				<path style="fill:#C6FF00;" d="M286.484,374.661l-1.059,11.853c0,0-5.302,2.322-5.296,3.109
					c0.007,0.788,1.025,1.845,5.329,1.845c4.304,0,5.739-1.64,5.739-2.87s9.224-11.478,9.224-11.478s0.82-2.05-0.615-3.689
					c-1.435-1.64-6.354-1.845-6.354-1.845L286.484,374.661z"/>
				
					<path style="fill:none;stroke:#263238;stroke-width:0.4175;stroke-linecap:round;stroke-linejoin:round;stroke-miterlimit:10;" d="
					M280.137,390.411c0,0,7.213-0.476,9.139-1.576c1.926-1.101,8.805-11.557,9.355-12.382c0.55-0.826,0.55-2.201,0.55-2.201"/>
			</g>
			
				<path style="fill:none;stroke:#263238;stroke-width:0.8351;stroke-linecap:round;stroke-linejoin:round;stroke-miterlimit:10;" d="
				M295.725,371.761c0,0,5.846,1.113,5.289,3.619c-0.557,2.505-9.743,13.64-11.135,15.032c-1.392,1.392-10.021,1.392-9.743,0
				c0.278-1.392,5.289-3.897,5.289-3.897l1.67-10.021"/>
		</g>
		<g>
			<g>
				<path style="fill:#C6FF00;" d="M172.521,384.295l-17.217,8.404c0,0-2.255,1.64,2.255,1.64c4.509,0,28.286,0.205,28.286,0.205
					s2.665,0.615,3.279-0.615c0.992-1.983,1.435-3.279,0.82-3.894C189.328,389.419,172.521,384.295,172.521,384.295z"/>
				
					<path style="fill:none;stroke:#263238;stroke-width:0.4175;stroke-linecap:round;stroke-linejoin:round;stroke-miterlimit:10;" d="
					M156.923,392.412c0,0,28.892,0,29.717,0s0.826,0,0.826,0"/>
			</g>
			
				<path style="fill:none;stroke:#263238;stroke-width:0.8351;stroke-linecap:round;stroke-linejoin:round;stroke-miterlimit:10;" d="
				M171.357,385.363c0,0-17.537,7.516-17.258,8.351c0.278,0.835,17.815,0.835,24.496,0.835c6.681,0,11.413,0.278,11.413-1.392"/>
		</g>
		<g>
			<path style="fill:#263238;" d="M295.725,371.761l-57.899-42.311l-1.949-42.59c0,0-3.559,3.192-7.137,4.567
				c-3.577,1.376-24.318,11.856-24.318,11.856s9.186,32.568,10.856,35.352c1.67,2.784,71.817,37.857,71.817,37.857L295.725,371.761z
				"/>
			<path style="fill:#263238;" d="M190.007,391.487c0,0-2.227-0.557-4.732-1.113c-2.505-0.557-13.918-5.01-13.918-5.01
				s-0.278-0.835-0.278-2.784c0-1.948,1.67-3.062,1.67-3.062s-43.424-57.899-44.538-59.57c-1.113-1.67-0.278-4.454,7.237-10.299
				c7.516-5.846,56.726-35.871,56.726-35.871c-1.896-2.241,1.67-3.619,1.67-3.619l4.454,1.392l29.228,10.299l11.691-7.794
				c0,0,1.949,7.237-5.289,12.805c-7.238,5.567-73.427,35.036-73.427,35.036l-1.101,0.074l29.773,65.063
				C189.172,387.034,191.173,390.562,190.007,391.487z"/>
			
				<polyline style="fill:none;stroke:#FFFFFF;stroke-width:0.8351;stroke-linecap:round;stroke-linejoin:round;stroke-miterlimit:10;" points="
				153.071,314.542 158.574,321.421 156.373,312.34 			"/>
			
				<path style="fill:none;stroke:#FFFFFF;stroke-width:0.8351;stroke-linecap:round;stroke-linejoin:round;stroke-miterlimit:10;" d="
				M207.278,303.81c0,0,11.282,17.61,15.409,21.187"/>
			
				<path style="fill:none;stroke:#FFFFFF;stroke-width:0.8351;stroke-linecap:round;stroke-linejoin:round;stroke-miterlimit:10;" d="
				M208.929,303.26c0,0,3.577,3.302,9.906,7.429"/>
		</g>
		<g>
			<polygon style="fill:#C6FF00;" points="228.709,210.033 189.654,236.651 198.19,271.848 227.178,281.567 265.863,254.007 
				261.186,218.597 			"/>
			<g>
				
					<line style="fill:none;stroke:#263238;stroke-width:0.8351;stroke-linecap:round;stroke-linejoin:round;stroke-miterlimit:10;" x1="189.862" y1="236.651" x2="192.34" y2="247.652"/>
				<g>
					
						<polyline style="fill:none;stroke:#263238;stroke-width:0.8351;stroke-linecap:round;stroke-linejoin:round;stroke-miterlimit:10;" points="
						194.401,255.684 198.298,271.551 227.526,281.85 223.907,255.684 					"/>
					
						<line style="fill:none;stroke:#263238;stroke-width:0.8351;stroke-linecap:round;stroke-linejoin:round;stroke-miterlimit:10;" x1="223.629" y1="253.457" x2="222.515" y2="246.777"/>
					
						<polyline style="fill:none;stroke:#263238;stroke-width:0.8351;stroke-linecap:round;stroke-linejoin:round;stroke-miterlimit:10;" points="
						258.146,260.138 265.94,254.292 262.043,221.167 					"/>
					
						<line style="fill:none;stroke:#263238;stroke-width:0.8351;stroke-linecap:round;stroke-linejoin:round;stroke-miterlimit:10;" x1="226.413" y1="244.828" x2="247.568" y2="228.961"/>
					
						<polyline style="fill:none;stroke:#263238;stroke-width:0.8351;stroke-linecap:round;stroke-linejoin:round;stroke-miterlimit:10;" points="
						246.455,214.765 228.918,210.033 190.504,236.199 					"/>
					
						<line style="fill:none;stroke:#263238;stroke-width:0.8351;stroke-linecap:round;stroke-linejoin:round;stroke-miterlimit:10;" x1="190.782" y1="237.312" x2="196.628" y2="238.982"/>
					
						<line style="fill:none;stroke:#263238;stroke-width:0.8351;stroke-linecap:round;stroke-linejoin:round;stroke-miterlimit:10;" x1="206.649" y1="241.209" x2="222.515" y2="245.663"/>
					
						<line style="fill:none;stroke:#263238;stroke-width:0.4175;stroke-linecap:round;stroke-linejoin:round;stroke-miterlimit:10;" x1="243.671" y1="214.208" x2="219.732" y2="232.58"/>
					
						<line style="fill:none;stroke:#263238;stroke-width:0.4175;stroke-linecap:round;stroke-linejoin:round;stroke-miterlimit:10;" x1="217.783" y1="234.25" x2="209.154" y2="240.931"/>
				</g>
			</g>
		</g>
		<g>
			<g>
				<defs>
					<path id="XMLID_2_" d="M244.266,198.852c0,0,6.085,50.151,6.085,52.378c0,2.227-5.567,3.34-5.567,6.124
						c0,2.784-1.392,6.681-1.392,6.681s-1.113,1.113-1.113,1.949c0,0.835,1.949,0.557,3.619-0.278
						c1.67-0.835,2.227-3.897,2.227-3.897s-0.835,4.175-0.835,5.567l-1.113,1.113c0,0-3.34,3.062-1.113,3.34
						c2.227,0.278,12.526-3.619,13.083-6.124c0.557-2.505-1.392-14.475-1.392-14.475s8.073-56.507,8.073-61.796
						c0-5.289-4.454-6.959-4.454-6.959"/>
				</defs>
				<use xlink:href="#XMLID_2_"  style="overflow:visible;fill:#FFFFFF;"/>
				<clipPath id="XMLID_00000067228268998423447940000008708646589792347295_">
					<use xlink:href="#XMLID_2_"  style="overflow:visible;"/>
				</clipPath>
				<path style="opacity:0.3;clip-path:url(#XMLID_00000067228268998423447940000008708646589792347295_);fill:#C6FF00;" d="
					M264.787,196.518c-1.164-4.449-2.439-12.524-2.439-12.524l-5.296-1.612l-7.028,8.411l5.525-3.4c0,0,0,63.322,0,66.722
					c0,3.4-4.25,16.574-4.25,16.574s8.796-1.855,7.373-9.852c-1.423-7.997-3.123-6.722-0.573-22.872
					C260.648,221.817,265.952,200.967,264.787,196.518z"/>
				
					<use xlink:href="#XMLID_2_"  style="overflow:visible;fill:none;stroke:#263238;stroke-width:0.8351;stroke-linecap:round;stroke-linejoin:round;stroke-miterlimit:10;"/>
			</g>
			
				<path style="fill:none;stroke:#263238;stroke-width:0.4175;stroke-linecap:round;stroke-linejoin:round;stroke-miterlimit:10;" d="
				M251.028,265.288c0,0,0.55,2.201-0.275,3.577s-1.926,2.476-1.926,2.476"/>
			
				<path style="fill:none;stroke:#263238;stroke-width:0.4175;stroke-linecap:round;stroke-linejoin:round;stroke-miterlimit:10;" d="
				M254.33,265.288c0,0-0.275,1.926-0.826,3.302"/>
			
				<path style="fill:none;stroke:#263238;stroke-width:0.4175;stroke-linecap:round;stroke-linejoin:round;stroke-miterlimit:10;" d="
				M256.807,264.462c0,0-0.275,1.926-0.826,3.302"/>
		</g>
		<g>
			<g>
				<path style="fill:#C6FF00;" d="M166.885,160.243c-0.32-2.882-6.083-8.325-14.088-9.925c-8.005-1.601-16.649-1.601-19.851,0.96
					c-1.195,0.956-1.988,3.16-2.513,5.547c0.566-1.224,1.717-3.696,2.903-4.684c5.896-4.913,7.533-1.965,8.516,2.293
					c0.983,4.258-0.328,16.049-0.328,16.049s-13.429,3.93-11.464-2.948c0,0-0.388-1.212-0.601-2.988
					c-0.028,0.515-0.036,0.819-0.036,0.819l-0.64,4.162l-5.443,0.96l-18.902-0.597c0,0,9.617,6.04,15.06,6.04
					c5.443,0,9.579-3.709,9.579-3.709l34.96,2.664C164.038,174.886,167.205,163.124,166.885,160.243z"/>
				
					<path style="fill:none;stroke:#263238;stroke-width:0.8351;stroke-linecap:round;stroke-linejoin:round;stroke-miterlimit:10;" d="
					M126.081,170.225l-21.642-0.333c0,0,5.993,5.66,13.984,5.66c7.991,0,10.655-3.329,10.655-3.329l34.96,2.664
					c0,0,4.572-8.703,2.241-16.361c-2.331-7.658-23.332-10.215-29.167-8.805c-7.226,1.746-7.701,7.852-7.701,11.182
					c0,3.33-0.666,7.325-0.666,7.325"/>
			</g>
			<g>
				<g>
					<defs>
						<path id="XMLID_1_" d="M127.745,173.221c0,0-3.663,8.657-1.998,9.989s2.664,1.998,2.664,1.998s0.999,11.654,2.664,13.651
							c1.665,1.998,12.319-1.332,12.319-1.332s21.642,21.642,22.308,17.647c0.666-3.995-1.998-18.979-1.998-20.643
							c0-1.665-4.661-5.993-4.661-5.993"/>
					</defs>
					<clipPath id="XMLID_00000075853442066637474780000012376668599749996719_">
						<use xlink:href="#XMLID_1_"  style="overflow:visible;"/>
					</clipPath>
					<path style="opacity:0.3;clip-path:url(#XMLID_00000075853442066637474780000012376668599749996719_);fill:#C6FF00;" d="
						M146.313,173.714l-14.134,0.248c0,0-3.967,5.951-2.975,7.687c0.992,1.736,2.975,2.975,2.975,2.975s-0.992,7.935,0.248,10.662
						c1.24,2.728,11.158,1.488,11.158,1.488s-2.48,1.736-7.191,2.232c-4.711,0.496-6.199-0.496-6.943-3.223
						c-0.744-2.728-1.04-10.576-1.04-10.576l-3.423-3.558l2.48-6.695l2.728-2.728L146.313,173.714z"/>
					
						<use xlink:href="#XMLID_1_"  style="overflow:visible;fill:none;stroke:#263238;stroke-width:0.8351;stroke-linecap:round;stroke-linejoin:round;stroke-miterlimit:10;"/>
				</g>
				<path style="fill:#263238;" d="M147.057,173.554c0,0,0.666,2.997,2.664,3.329c1.998,0.333,3.663-2.997,3.663-2.997
					L147.057,173.554z"/>
				<path style="fill:#263238;" d="M164.038,174.886c0,0,1.998,5.993-0.333,9.323s-3.33,3.33-3.33,3.33
					c-1.998,3.329-7.325-3.996-7.325-3.996s3.993-0.18,4.992-2.843c0.999-2.664-0.399-6.549-0.399-6.549L164.038,174.886z"/>
				
					<path style="fill:none;stroke:#263238;stroke-width:0.8351;stroke-linecap:round;stroke-linejoin:round;stroke-miterlimit:10;" d="
					M158.044,174.886c0,0,0.999,4.661,0,6.992c-0.999,2.331-4.994,1.665-4.994,1.665l-1.998,4.994"/>
				
					<path style="fill:none;stroke:#263238;stroke-width:0.6263;stroke-linecap:round;stroke-linejoin:round;stroke-miterlimit:10;" d="
					M130.783,187.142c0,0,3.852,0.826,6.329-3.577"/>
			</g>
		</g>
		<g>
			
				<rect x="193.188" y="209.884" transform="matrix(0.9383 -0.3457 0.3457 0.9383 -62.6873 81.6433)" style="fill:#263238;" width="8.719" height="13.369"/>
			
				<rect x="194.917" y="212.121" transform="matrix(0.9384 -0.3457 0.3457 0.9384 -62.2532 81.3666)" style="fill:#FFFFFF;" width="4.166" height="6.2"/>
			
				<rect x="193.926" y="207.063" transform="matrix(0.9383 -0.3457 0.3457 0.9383 -60.2701 80.247)" style="fill:#FFFFFF;stroke:#263238;stroke-width:0.4175;stroke-linecap:round;stroke-linejoin:round;stroke-miterlimit:10;" width="1.841" height="4.069"/>
		</g>
		
			<line style="fill:none;stroke:#263238;stroke-width:0.8351;stroke-linecap:round;stroke-linejoin:round;stroke-miterlimit:10;" x1="186.428" y1="261.713" x2="193.844" y2="270.159"/>
		<g>
			<defs>
				<path id="SVGID_1_" d="M230.212,174.855l1.865,0.717l26.685,4.878c0,0,4.353,2.288,5.882,4.734
					c1.529,2.446,0.143,11.334,0.143,11.334l-2.755,20.939l4.433,37.535l-7.794,5.846l0.303,3.713
					c0.204,0.063-0.051,4.951-11.62,7.033c0,0-2.398,1.191-3.098,0.666c-1.773-1.33-0.35-1.225-0.35-1.225l-4.687,3.031
					c0,0,0.491,3.033-0.732,7.008s-2.063,4.78-2.063,4.78l2.128,37.147l5.134,7.307l66.971,40.672h123.544V98.5h-205.5v75.781
					L230.212,174.855z"/>
			</defs>
			<clipPath id="SVGID_00000003827013246357740750000001526459583161042619_">
				<use xlink:href="#SVGID_1_"  style="overflow:visible;"/>
			</clipPath>
			<g style="clip-path:url(#SVGID_00000003827013246357740750000001526459583161042619_);">
				<g>
					
						<polygon style="fill:none;stroke:#263238;stroke-width:0.8351;stroke-linecap:round;stroke-linejoin:round;stroke-miterlimit:10;" points="
						262.547,157.447 255.204,161.687 251.05,154.445 258.394,150.206 					"/>
					
						<polygon style="fill:none;stroke:#263238;stroke-width:0.8351;stroke-linecap:round;stroke-linejoin:round;stroke-miterlimit:10;" points="
						260.067,149.199 248.495,155.88 241.606,143.12 253.177,136.439 					"/>
				</g>
				<g>
					
						<ellipse transform="matrix(0.7071 -0.7071 0.7071 0.7071 -85.2905 290.9449)" style="fill:#FFFFFF;" cx="308.556" cy="248.427" rx="88.958" ry="88.958"/>
					
						<path style="fill:#263238;stroke:#263238;stroke-width:0.8351;stroke-linecap:round;stroke-linejoin:round;stroke-miterlimit:10;" d="
						M309.339,144.2c-56.714,0-102.69,45.976-102.69,102.69c0,56.714,45.976,102.69,102.69,102.69
						c56.714,0,102.69-45.976,102.69-102.69C412.029,190.176,366.053,144.2,309.339,144.2z M309.339,335.848
						c-49.13,0-88.958-39.828-88.958-88.958c0-49.13,39.828-88.958,88.958-88.958c49.13,0,88.958,39.828,88.958,88.958
						C398.297,296.02,358.469,335.848,309.339,335.848z"/>
					
						<path style="fill:none;stroke:#FFFFFF;stroke-width:1.6702;stroke-linecap:round;stroke-linejoin:round;stroke-miterlimit:10;" d="
						M372.349,169.434c-10.108-8.232-21.858-14.526-34.682-18.314"/>
					
						<path style="fill:none;stroke:#FFFFFF;stroke-width:1.6702;stroke-linecap:round;stroke-linejoin:round;stroke-miterlimit:10;" d="
						M328.203,148.824c-3.599-0.688-7.267-1.183-10.992-1.474"/>
					
						<path style="fill:none;stroke:#FFFFFF;stroke-width:0.8351;stroke-linecap:round;stroke-linejoin:round;stroke-miterlimit:10;" d="
						M384.236,301.787c11.29-15.377,17.959-34.359,17.959-54.898c0-21.721-7.458-41.7-19.953-57.516"/>
					
						<path style="fill:none;stroke:#FFFFFF;stroke-width:0.8351;stroke-linecap:round;stroke-linejoin:round;stroke-miterlimit:10;" d="
						M371.261,316.084c2.912-2.608,5.659-5.397,8.222-8.35"/>
					
						<path style="fill:none;stroke:#FFFFFF;stroke-width:0.8351;stroke-linecap:round;stroke-linejoin:round;stroke-miterlimit:10;" d="
						M271.588,331.75c11.534,5.139,24.309,7.995,37.75,7.995c22.035,0,42.277-7.675,58.198-20.497"/>
					
						<path style="fill:none;stroke:#FFFFFF;stroke-width:0.8351;stroke-linecap:round;stroke-linejoin:round;stroke-miterlimit:10;" d="
						M258.342,324.5c2.768,1.823,5.64,3.501,8.604,5.025"/>
					
						<path style="fill:none;stroke:#FFFFFF;stroke-width:0.8351;stroke-linecap:round;stroke-linejoin:round;stroke-miterlimit:10;" d="
						M248.382,316.937c2.339,2.037,4.78,3.958,7.316,5.756"/>
					
						<path style="fill:none;stroke:#FFFFFF;stroke-width:0.8351;stroke-linecap:round;stroke-linejoin:round;stroke-miterlimit:10;" d="
						M283.658,157.631c-38.791,11.141-67.174,46.885-67.174,89.258c0,26.762,11.322,50.881,29.437,67.826"/>
					
						<path style="fill:none;stroke:#FFFFFF;stroke-width:0.8351;stroke-linecap:round;stroke-linejoin:round;stroke-miterlimit:10;" d="
						M374.997,181.231c-16.803-16.803-40.017-27.197-65.659-27.197c-6.371,0-12.593,0.642-18.603,1.864"/>
				</g>
				<rect x="295.925" y="279.785" style="fill:#C6FF00;" width="26.723" height="7.237"/>
				
					<path style="fill:none;stroke:#FFFFFF;stroke-width:1.6702;stroke-linecap:round;stroke-linejoin:round;stroke-miterlimit:10;" d="
					M372.349,169.434"/>
				<g>
					<path style="fill:#263238;" d="M316.795,246.89c0-3.66-2.64-6.699-6.118-7.33l-0.783-48.872h-1.111L308,239.559
						c-3.478,0.632-6.118,3.67-6.118,7.33c0,3.578,2.521,6.564,5.883,7.287l-0.278,17.342h3.702l-0.278-17.342
						C314.274,253.454,316.795,250.468,316.795,246.89z M309.339,250.893c-2.211,0-4.004-1.793-4.004-4.004
						c0-2.211,1.793-4.004,4.004-4.004s4.004,1.793,4.004,4.004C313.343,249.101,311.55,250.893,309.339,250.893z"/>
					<circle style="fill:#C6FF00;" cx="309.339" cy="246.89" r="4.112"/>
				</g>
				<g>
					
						<line style="fill:none;stroke:#263238;stroke-width:3.3403;stroke-linecap:round;stroke-linejoin:round;stroke-miterlimit:10;" x1="309.339" y1="162.921" x2="309.339" y2="177.73"/>
					
						<line style="fill:none;stroke:#263238;stroke-width:3.3403;stroke-linecap:round;stroke-linejoin:round;stroke-miterlimit:10;" x1="309.339" y1="316.562" x2="309.339" y2="331.37"/>
					
						<line style="fill:none;stroke:#263238;stroke-width:3.3403;stroke-linecap:round;stroke-linejoin:round;stroke-miterlimit:10;" x1="267.227" y1="174.205" x2="274.631" y2="187.03"/>
					
						<line style="fill:none;stroke:#263238;stroke-width:3.3403;stroke-linecap:round;stroke-linejoin:round;stroke-miterlimit:10;" x1="344.047" y1="307.262" x2="351.451" y2="320.086"/>
					
						<line style="fill:none;stroke:#263238;stroke-width:3.3403;stroke-linecap:round;stroke-linejoin:round;stroke-miterlimit:10;" x1="236.398" y1="205.034" x2="249.223" y2="212.438"/>
					
						<line style="fill:none;stroke:#263238;stroke-width:3.3403;stroke-linecap:round;stroke-linejoin:round;stroke-miterlimit:10;" x1="369.454" y1="281.854" x2="382.279" y2="289.258"/>
					
						<line style="fill:none;stroke:#263238;stroke-width:3.3403;stroke-linecap:round;stroke-linejoin:round;stroke-miterlimit:10;" x1="393.563" y1="247.146" x2="378.754" y2="247.146"/>
					
						<line style="fill:none;stroke:#263238;stroke-width:3.3403;stroke-linecap:round;stroke-linejoin:round;stroke-miterlimit:10;" x1="239.923" y1="247.146" x2="225.114" y2="247.146"/>
					
						<line style="fill:none;stroke:#263238;stroke-width:3.3403;stroke-linecap:round;stroke-linejoin:round;stroke-miterlimit:10;" x1="393.563" y1="247.146" x2="378.754" y2="247.146"/>
					
						<line style="fill:none;stroke:#263238;stroke-width:3.3403;stroke-linecap:round;stroke-linejoin:round;stroke-miterlimit:10;" x1="239.923" y1="247.146" x2="225.114" y2="247.146"/>
					
						<line style="fill:none;stroke:#263238;stroke-width:3.3403;stroke-linecap:round;stroke-linejoin:round;stroke-miterlimit:10;" x1="382.279" y1="205.034" x2="369.454" y2="212.438"/>
					
						<line style="fill:none;stroke:#263238;stroke-width:3.3403;stroke-linecap:round;stroke-linejoin:round;stroke-miterlimit:10;" x1="249.223" y1="281.854" x2="236.398" y2="289.258"/>
					
						<line style="fill:none;stroke:#263238;stroke-width:3.3403;stroke-linecap:round;stroke-linejoin:round;stroke-miterlimit:10;" x1="351.451" y1="174.205" x2="344.047" y2="187.03"/>
					
						<line style="fill:none;stroke:#263238;stroke-width:3.3403;stroke-linecap:round;stroke-linejoin:round;stroke-miterlimit:10;" x1="274.631" y1="307.262" x2="267.227" y2="320.086"/>
				</g>
				<g>
					
						<rect x="305.099" y="140.966" style="fill:none;stroke:#263238;stroke-width:0.8351;stroke-linecap:round;stroke-linejoin:round;stroke-miterlimit:10;" width="8.48" height="7.503"/>
					
						<rect x="302.658" y="120.93" style="fill:none;stroke:#263238;stroke-width:0.8351;stroke-linecap:round;stroke-linejoin:round;stroke-miterlimit:10;" width="13.361" height="19.606"/>
					<g>
						<rect x="299.462" y="107.132" style="fill:#C6FF00;" width="19.336" height="13.361"/>
						
							<rect x="299.671" y="107.132" style="fill:none;stroke:#263238;stroke-width:0.8351;stroke-linecap:round;stroke-linejoin:round;stroke-miterlimit:10;" width="19.336" height="13.361"/>
						
							<line style="fill:none;stroke:#263238;stroke-width:0.8351;stroke-linecap:round;stroke-linejoin:round;stroke-miterlimit:10;" x1="301.817" y1="115.439" x2="301.817" y2="107.434"/>
						
							<line style="fill:none;stroke:#263238;stroke-width:0.8351;stroke-linecap:round;stroke-linejoin:round;stroke-miterlimit:10;" x1="301.817" y1="120.735" x2="301.817" y2="117.287"/>
						
							<line style="fill:none;stroke:#263238;stroke-width:0.8351;stroke-linecap:round;stroke-linejoin:round;stroke-miterlimit:10;" x1="304.28" y1="120.735" x2="304.28" y2="107.434"/>
						
							<line style="fill:none;stroke:#263238;stroke-width:0.8351;stroke-linecap:round;stroke-linejoin:round;stroke-miterlimit:10;" x1="306.743" y1="110.759" x2="306.743" y2="107.434"/>
						
							<line style="fill:none;stroke:#263238;stroke-width:0.8351;stroke-linecap:round;stroke-linejoin:round;stroke-miterlimit:10;" x1="306.743" y1="120.735" x2="306.743" y2="112.36"/>
						
							<line style="fill:none;stroke:#263238;stroke-width:0.8351;stroke-linecap:round;stroke-linejoin:round;stroke-miterlimit:10;" x1="310.808" y1="120.735" x2="310.808" y2="107.434"/>
					</g>
				</g>
			</g>
		</g>
		<g>
			<path style="opacity:0.3;fill:#C6FF00;" d="M168.133,213.141l7.191,0.496l-0.248-2.728
				C175.076,210.909,168.629,210.413,168.133,213.141z"/>
			<g>
				<g>
					<defs>
						<path id="XMLID_4_" d="M152.368,211.703c0,0-11.691,9.464-11.691,11.97c0,2.505-0.835,49.548-0.278,50.662
							c0.557,1.114,22.547-14.196,22.547-14.196l-2.227-20.321"/>
					</defs>
					<clipPath id="XMLID_00000096037541577404463010000015960272366789830554_">
						<use xlink:href="#XMLID_4_"  style="overflow:visible;"/>
					</clipPath>
					<path style="opacity:0.3;clip-path:url(#XMLID_00000096037541577404463010000015960272366789830554_);fill:#C6FF00;" d="
						M148.316,269.871l14.63-9.733l-18.743,7.152c0,0-1.7-38.248-0.425-41.223c1.275-2.975,9.35-8.499,9.35-8.499
						s-0.481-3.081,2.125-4.25c2.606-1.169,5.525,0,5.525,0l1.855,0.699c-2.136-1.199-5.569-3.629-10.864-8.563l-0.121,0.009
						l1.279,1.23l-0.557,5.01l-5.615,4.59c-1.275,1.275-6.076,7.38-6.076,7.38l-0.278,50.662l7.629-4.919
						C148.028,269.415,148.133,269.579,148.316,269.871z"/>
					
						<use xlink:href="#XMLID_4_"  style="overflow:visible;fill:none;stroke:#263238;stroke-width:0.8351;stroke-linecap:round;stroke-linejoin:round;stroke-miterlimit:10;"/>
				</g>
				
					<line style="fill:none;stroke:#263238;stroke-width:0.8351;stroke-linecap:round;stroke-linejoin:round;stroke-miterlimit:10;" x1="154.595" y1="234.807" x2="178.256" y2="253.736"/>
				<g>
					<defs>
						<path id="XMLID_3_" d="M170.616,192.044c0,0,22.95-21.817,25.733-21.817s48.713,9.186,52.054,9.743
							c3.34,0.557,8.908,1.67,8.908,1.67s-9.743,12.248-13.083,16.423c-3.34,4.175-5.011,6.681-5.011,6.681l-37.579-17.258"/>
					</defs>
					<clipPath id="XMLID_00000049938690724597647250000012895536142860920467_">
						<use xlink:href="#XMLID_3_"  style="overflow:visible;"/>
					</clipPath>
					<path style="opacity:0.3;clip-path:url(#XMLID_00000049938690724597647250000012895536142860920467_);fill:#C6FF00;" d="
						M257.052,182.382l-14.253-4.338l-46.449-7.818l-11.773,12.917c0,0,10.2-6.375,13.174-6.375
						c2.836,0,47.765,12.744,51.959,13.935L257.052,182.382z"/>
					
						<use xlink:href="#XMLID_3_"  style="overflow:visible;fill:none;stroke:#263238;stroke-width:0.8351;stroke-linecap:round;stroke-linejoin:round;stroke-miterlimit:10;"/>
				</g>
				
					<line style="fill:none;stroke:#263238;stroke-width:0.8351;stroke-linecap:round;stroke-linejoin:round;stroke-miterlimit:10;" x1="208.041" y1="191.661" x2="217.505" y2="216.713"/>
				
					<polyline style="fill:none;stroke:#263238;stroke-width:0.8351;stroke-linecap:round;stroke-linejoin:round;stroke-miterlimit:10;" points="
					179.091,229.24 176.864,231.467 166.008,217.548 				"/>
				
					<polyline style="fill:none;stroke:#263238;stroke-width:0.4175;stroke-linecap:round;stroke-linejoin:round;stroke-miterlimit:10;" points="
					197.372,192.645 208.378,190.719 199.023,197.323 				"/>
				
					<line style="fill:none;stroke:#263238;stroke-width:0.4175;stroke-linecap:round;stroke-linejoin:round;stroke-miterlimit:10;" x1="160.719" y1="239.817" x2="146.742" y2="237.772"/>
			</g>
			
				<path style="fill:none;stroke:#263238;stroke-width:0.8351;stroke-linecap:round;stroke-linejoin:round;stroke-miterlimit:10;" d="
				M152.925,206.692c0,0-1.67,3.619-0.278,7.794c1.392,4.175,6.124,11.413,6.124,11.413l6.124-8.629"/>
			
				<path style="fill:none;stroke:#263238;stroke-width:0.8351;stroke-linecap:round;stroke-linejoin:round;stroke-miterlimit:10;" d="
				M166.843,213.93c0,0,3.062-2.784,5.846-2.784s4.732,0,4.732,0s-0.835-10.856-4.732-16.702c-3.897-5.846-9.186-2.784-9.186-2.784"
				/>
		</g>
		<g>
			<g>
				<defs>
					<path id="XMLID_5_" d="M161.833,261.808l33.404-15.588l2.784-9.743l11.413-2.505c0,0,2.227-2.227,1.949,0
						c-0.278,2.227-3.34,3.062-4.454,5.289c-1.113,2.227-1.113,6.681-2.505,8.629c-1.392,1.949-6.402,4.175-6.402,4.175
						s-37.579,31.455-40.363,33.125c-2.784,1.67-8.351-14.197-8.351-14.197"/>
				</defs>
				<use xlink:href="#XMLID_5_"  style="overflow:visible;fill:#FFFFFF;"/>
				<clipPath id="XMLID_00000088099476334427959400000017910212308465709445_">
					<use xlink:href="#XMLID_5_"  style="overflow:visible;"/>
				</clipPath>
				<path style="opacity:0.3;clip-path:url(#XMLID_00000088099476334427959400000017910212308465709445_);fill:#C6FF00;" d="
					M148.316,269.871c1.298,2.07,6.564,10.642,6.937,13.993c0.425,3.825,3.825,0,3.825,0l30.599-25.499
					c0,0-30.174,19.124-32.724,18.274s-2.975-7.225-2.975-7.225l8.968-9.277L148.316,269.871z"/>
				
					<use xlink:href="#XMLID_5_"  style="overflow:visible;fill:none;stroke:#263238;stroke-width:0.8351;stroke-linecap:round;stroke-linejoin:round;stroke-miterlimit:10;"/>
			</g>
			
				<path style="fill:none;stroke:#263238;stroke-width:0.4175;stroke-linecap:round;stroke-linejoin:round;stroke-miterlimit:10;" d="
				M209.432,233.972c0,0-5.457,3.249-4.906,4.35"/>
			
				<line style="fill:none;stroke:#263238;stroke-width:0.4175;stroke-linecap:round;stroke-linejoin:round;stroke-miterlimit:10;" x1="205.076" y1="235.02" x2="200.949" y2="237.221"/>
		</g>
	</g>
</g>
</svg>
