<svg width="40" height="40" viewBox="0 0 40 40" fill="none" xmlns="http://www.w3.org/2000/svg">
<g clip-path="url(#clip0_1931_259)">
<path d="M39.9789 20.3741C39.9789 18.7353 39.8428 17.5395 39.5483 16.2993H20.3984V23.696H31.639C31.4125 25.5341 30.1887 28.3024 27.4691 30.1625L27.431 30.4102L33.4858 34.9938L33.9053 35.0347C37.7579 31.5578 39.9789 26.4421 39.9789 20.3741Z" fill="#4285F4"/>
<path d="M20.3985 39.8626C25.9054 39.8626 30.5286 38.0908 33.9054 35.0348L27.4692 30.1626C25.7469 31.3363 23.4352 32.1557 20.3985 32.1557C15.0049 32.1557 10.427 28.6789 8.79518 23.8733L8.55598 23.8931L2.26007 28.6545L2.17773 28.8782C5.53176 35.389 12.4212 39.8626 20.3985 39.8626Z" fill="#34A853"/>
<path d="M8.7952 23.8732C8.36462 22.633 8.11542 21.3042 8.11542 19.9312C8.11542 18.558 8.36462 17.2293 8.77254 15.9892L8.76114 15.7251L2.38633 10.8872L2.17775 10.9842C0.795397 13.686 0.00219727 16.72 0.00219727 19.9312C0.00219727 23.1423 0.795397 26.1762 2.17775 28.878L8.7952 23.8732Z" fill="#FBBC05"/>
<path d="M20.3985 7.70672C24.2284 7.70672 26.8119 9.32336 28.285 10.6744L34.0413 5.18214C30.5061 1.97099 25.9054 0 20.3985 0C12.4212 0 5.53176 4.47343 2.17773 10.9843L8.77252 15.9893C10.427 11.1837 15.0048 7.70672 20.3985 7.70672Z" fill="#EB4335"/>
</g>
<defs>
<clipPath id="clip0_1931_259">
<rect width="40" height="40" fill="white"/>
</clipPath>
</defs>
</svg>
