<svg xmlns="http://www.w3.org/2000/svg" width="655.359" height="655.359" fill-rule="evenodd" clip-rule="evenodd" image-rendering="optimizeQuality" shape-rendering="geometricPrecision" text-rendering="geometricPrecision" viewBox="0 0 6.827 6.827" id="payment"><path fill-rule="nonzero" d="M1.61 4.476a.28.28 0 0 1-.023-.004.08.08 0 0 1-.068-.08V3.4a.08.08 0 0 1 .057-.078l.023.077-.023-.077c.165-.048.518-.045.903-.02.566.038 1.21.124 1.414.17.139.03.226.07.272.117.059.06.063.124.022.19a.405.405 0 0 1-.148.128c-.14.08-.37.158-.622.217.416.089.747.011 1.085-.067.357-.083.721-.168 1.196-.075a.461.461 0 0 1 .208.083.167.167 0 0 1 .065.16.285.285 0 0 1-.072.141c-.078.091-.214.18-.322.238-.345.184-.883.325-1.39.405-.567.09-1.102.101-1.299.01l-.215-.106c-.333-.164-.862-.424-1.026-.435h-.005l-.031-.002zm.069-.155c.216.031.733.286 1.064.45l.213.102c.17.08.668.064 1.207-.021.492-.078 1.01-.213 1.34-.389.094-.05.212-.126.275-.2a.138.138 0 0 0 .035-.06c0-.004-.002-.01-.009-.015a.319.319 0 0 0-.136-.05c-.442-.085-.79-.005-1.13.075-.44.102-.87.202-1.48-.03l.028-.074-.029.075a.08.08 0 0 1 .022-.155c.344-.056.7-.157.881-.26a.278.278 0 0 0 .09-.07c-.026-.024-.086-.049-.191-.072-.199-.044-.83-.128-1.39-.165-.327-.022-.626-.028-.79 0v.86zM.994 3.108h.33a.14.14 0 0 1 .1.041l-.057.057.057-.057v.001h.001a.14.14 0 0 1 .04.099v1.21a.14.14 0 0 1-.041.1l-.057-.057.057.057a.14.14 0 0 1-.1.041h-.33a.14.14 0 0 1-.1-.041.14.14 0 0 1-.041-.1v-1.21a.14.14 0 0 1 .141-.141zm.311.16h-.292V4.44h.292V3.268zm3.226-1.523a.834.834 0 0 1 .837.837.834.834 0 0 1-.837.837.834.834 0 0 1-.837-.837.834.834 0 0 1 .837-.837zm.479.358a.675.675 0 0 0-.957 0 .675.675 0 0 0 0 .957.675.675 0 0 0 .957 0 .675.675 0 0 0 0-.957z"></path><path fill-rule="nonzero" d="M4.74 2.718a.162.162 0 0 1-.059.13.214.214 0 0 1-.068.037.326.326 0 0 1-.09.017l-.011.108-.002.006a.01.01 0 0 1-.005.005.036.036 0 0 1-.01.002.104.104 0 0 1-.016.001.1.1 0 0 1-.029-.004.01.01 0 0 1-.005-.005v-.007l.011-.108a.43.43 0 0 1-.108-.03.074.074 0 0 1-.017-.011.028.028 0 0 1-.007-.014.136.136 0 0 1-.001-.042c0-.005.002-.008.003-.012a.012.012 0 0 1 .005-.006.016.016 0 0 1 .008-.002c.004 0 .01.002.019.007a.3.3 0 0 0 .148.04c.048 0 .084-.01.108-.028a.09.09 0 0 0 .037-.076.086.086 0 0 0-.013-.05.124.124 0 0 0-.036-.033.249.249 0 0 0-.05-.025 10.036 10.036 0 0 0-.059-.02.621.621 0 0 1-.057-.025.21.21 0 0 1-.05-.033.154.154 0 0 1-.036-.05.165.165 0 0 1-.013-.07c0-.022.003-.043.011-.063a.143.143 0 0 1 .035-.05.18.18 0 0 1 .058-.036.27.27 0 0 1 .081-.017l.01-.1.002-.007a.01.01 0 0 1 .005-.004.026.026 0 0 1 .01-.003.195.195 0 0 1 .034 0c.005 0 .009.002.011.003a.01.01 0 0 1 .005.006.02.02 0 0 1 0 .007l-.01.1a.28.28 0 0 1 .087.024.063.063 0 0 1 .016.01.028.028 0 0 1 .006.007.044.044 0 0 1 .003.008.113.113 0 0 1 .002.04.045.045 0 0 1-.002.012.014.014 0 0 1-.005.006.01.01 0 0 1-.005.002.042.042 0 0 1-.018-.007.366.366 0 0 0-.073-.028.222.222 0 0 0-.11 0 .108.108 0 0 0-.04.019.071.071 0 0 0-.02.028.095.095 0 0 0-.007.036c0 .02.004.037.013.05.01.013.022.025.036.034.015.01.032.017.051.024a6.578 6.578 0 0 1 .117.045c.02.008.036.02.05.033.016.013.028.03.037.049.009.019.014.042.014.07z"></path><path fill="none" d="M0 0h6.827v6.827H0z"></path></svg>